<svg xmlns="http://www.w3.org/2000/svg" viewBox="0 0 221.57 222.49"><defs><style>.cls-1{fill:#74aaaa;fill-rule:evenodd;}.cls-2{fill:#e3a592;}.cls-3{fill:#f9fbfd;}.cls-4{fill:#e2be77;}.cls-5{fill:#31373d;}</style></defs><title>資產 3</title><g id="圖層_2" data-name="圖層 2"><g id="圖層_1-2" data-name="圖層 1"><path class="cls-1" d="M221.57,111.24C221.57,49.81,172,0,110.78,0S0,49.81,0,111.24,49.6,222.49,110.78,222.49s110.78-49.81,110.78-111.24Z"/><circle class="cls-2" cx="110.77" cy="67.41" r="28.25" transform="translate(-15.22 98.07) rotate(-45)"/><circle class="cls-3" cx="87.53" cy="87.14" r="28.25" transform="translate(-35.98 87.42) rotate(-45)"/><circle class="cls-2" cx="134.01" cy="87.14" r="28.25" transform="translate(-22.37 120.28) rotate(-45)"/><path class="cls-4" d="M168,90.4a56.86,56.86,0,0,0-57.42,1.81,56.86,56.86,0,0,0-56.95-3.16,4.47,4.47,0,0,0-1.76,6.34L84.57,148l20.68,32.86a5.21,5.21,0,0,0,8.76.1l21.56-32.65,34-51.56A4.47,4.47,0,0,0,168,90.4Z"/><path class="cls-3" d="M163.85,89.26a.89.89,0,1,0,1.78,0,.93.93,0,0,0,0-.09l-1.38-.65A.89.89,0,0,0,163.85,89.26Z"/><path class="cls-3" d="M167.72,91.13a.89.89,0,1,0,.89.89A.89.89,0,0,0,167.72,91.13Z"/><path class="cls-3" d="M164.74,94.11a.89.89,0,1,0,.89.89A.89.89,0,0,0,164.74,94.11Z"/><path class="cls-3" d="M167.72,96.87a.89.89,0,1,0,.89.89A.89.89,0,0,0,167.72,96.87Z"/><path class="cls-3" d="M164.74,99.85a.89.89,0,1,0,.89.89A.89.89,0,0,0,164.74,99.85Z"/><path class="cls-3" d="M159,88.36a.89.89,0,1,0,.89.89A.89.89,0,0,0,159,88.36Z"/><path class="cls-3" d="M162,91.13a.89.89,0,1,0,.89.89A.89.89,0,0,0,162,91.13Z"/><path class="cls-3" d="M159,94.11a.89.89,0,1,0,.89.89A.89.89,0,0,0,159,94.11Z"/><path class="cls-3" d="M162,96.87a.89.89,0,1,0,.89.89A.89.89,0,0,0,162,96.87Z"/><path class="cls-3" d="M159,99.85a.89.89,0,1,0,.89.89A.89.89,0,0,0,159,99.85Z"/><path class="cls-3" d="M162,102.62a.89.89,0,1,0,.89.89A.89.89,0,0,0,162,102.62Z"/><path class="cls-3" d="M159,105.6a.89.89,0,1,0,.89.89A.89.89,0,0,0,159,105.6Z"/><path class="cls-3" d="M155.34,86.27a.89.89,0,1,0,1.65-.46l-1.16-.33a.89.89,0,0,0-.49.79Z"/><path class="cls-3" d="M153.25,88.36a.89.89,0,1,0,.89.89A.89.89,0,0,0,153.25,88.36Z"/><path class="cls-3" d="M156.23,91.13a.89.89,0,1,0,.89.89A.89.89,0,0,0,156.23,91.13Z"/><path class="cls-3" d="M153.25,94.11a.89.89,0,1,0,.89.89A.89.89,0,0,0,153.25,94.11Z"/><path class="cls-3" d="M156.23,96.87a.89.89,0,1,0,.89.89A.89.89,0,0,0,156.23,96.87Z"/><path class="cls-3" d="M153.25,99.85a.89.89,0,1,0,.89.89A.89.89,0,0,0,153.25,99.85Z"/><path class="cls-3" d="M156.23,102.62a.89.89,0,1,0,.89.89A.89.89,0,0,0,156.23,102.62Z"/><path class="cls-3" d="M156.23,108.36a.89.89,0,1,0,.89.89A.89.89,0,0,0,156.23,108.36Z"/><path class="cls-3" d="M153.25,111.34a.89.89,0,1,0,.89.89A.89.89,0,0,0,153.25,111.34Z"/><path class="cls-3" d="M156.23,114.11a.89.89,0,1,0,.89.89A.89.89,0,0,0,156.23,114.11Z"/><path class="cls-3" d="M153.25,117.09a.89.89,0,1,0,.89.89A.89.89,0,0,0,153.25,117.09Z"/><path class="cls-3" d="M150.48,85.38a.89.89,0,1,0,.89.89A.89.89,0,0,0,150.48,85.38Z"/><path class="cls-3" d="M147.5,88.36a.89.89,0,1,0,.89.89A.89.89,0,0,0,147.5,88.36Z"/><path class="cls-3" d="M150.48,91.13a.89.89,0,1,0,.89.89A.89.89,0,0,0,150.48,91.13Z"/><path class="cls-3" d="M147.5,94.11a.89.89,0,1,0,.89.89A.89.89,0,0,0,147.5,94.11Z"/><path class="cls-3" d="M150.48,96.87a.89.89,0,1,0,.89.89A.89.89,0,0,0,150.48,96.87Z"/><path class="cls-3" d="M147.5,99.85a.89.89,0,1,0,.89.89A.89.89,0,0,0,147.5,99.85Z"/><path class="cls-3" d="M150.48,102.62a.89.89,0,1,0,.89.89A.89.89,0,0,0,150.48,102.62Z"/><path class="cls-3" d="M147.5,105.6a.89.89,0,1,0,.89.89A.89.89,0,0,0,147.5,105.6Z"/><path class="cls-3" d="M147.5,111.34a.89.89,0,1,0,.89.89A.89.89,0,0,0,147.5,111.34Z"/><path class="cls-3" d="M150.48,114.11a.89.89,0,1,0,.89.89A.89.89,0,0,0,150.48,114.11Z"/><path class="cls-3" d="M147.5,117.09a.89.89,0,1,0,.89.89A.89.89,0,0,0,147.5,117.09Z"/><path class="cls-3" d="M150.48,119.85a.89.89,0,1,0,.89.89A.89.89,0,0,0,150.48,119.85Z"/><path class="cls-3" d="M147.5,122.83a.89.89,0,1,0,.89.89A.89.89,0,0,0,147.5,122.83Z"/><path class="cls-3" d="M147.5,128.58a.89.89,0,0,0-.05,1.78l.85-1.28a.89.89,0,0,0-.79-.49Z"/><path class="cls-3" d="M144.74,85.38a.89.89,0,1,0,.89.89A.89.89,0,0,0,144.74,85.38Z"/><path class="cls-3" d="M141.76,88.36a.89.89,0,1,0,.89.89A.89.89,0,0,0,141.76,88.36Z"/><path class="cls-3" d="M144.74,91.13a.89.89,0,1,0,.89.89A.89.89,0,0,0,144.74,91.13Z"/><path class="cls-3" d="M141.76,94.11a.89.89,0,1,0,.89.89A.89.89,0,0,0,141.76,94.11Z"/><path class="cls-3" d="M144.74,96.87a.89.89,0,1,0,.89.89A.89.89,0,0,0,144.74,96.87Z"/><path class="cls-3" d="M144.74,102.62a.89.89,0,1,0,.89.89A.89.89,0,0,0,144.74,102.62Z"/><path class="cls-3" d="M141.76,105.6a.89.89,0,1,0,.89.89A.89.89,0,0,0,141.76,105.6Z"/><path class="cls-3" d="M144.74,108.36a.89.89,0,1,0,.89.89A.89.89,0,0,0,144.74,108.36Z"/><path class="cls-3" d="M141.76,111.34a.89.89,0,1,0,.89.89A.89.89,0,0,0,141.76,111.34Z"/><path class="cls-3" d="M144.74,114.11a.89.89,0,1,0,.89.89A.89.89,0,0,0,144.74,114.11Z"/><path class="cls-3" d="M141.76,117.09a.89.89,0,1,0,.89.89A.89.89,0,0,0,141.76,117.09Z"/><path class="cls-3" d="M144.74,119.85a.89.89,0,1,0,.89.89A.89.89,0,0,0,144.74,119.85Z"/><path class="cls-3" d="M144.74,125.6a.89.89,0,1,0,.89.89A.89.89,0,0,0,144.74,125.6Z"/><path class="cls-3" d="M141.76,128.58a.89.89,0,1,0,.89.89A.89.89,0,0,0,141.76,128.58Z"/><path class="cls-3" d="M144.74,131.34a.89.89,0,1,0,.89.89A.89.89,0,0,0,144.74,131.34Z"/><path class="cls-3" d="M141.76,136.1a.89.89,0,1,0-.89-.89A.89.89,0,0,0,141.76,136.1Z"/><path class="cls-3" d="M139,85.38a.89.89,0,1,0,.89.89A.89.89,0,0,0,139,85.38Z"/><path class="cls-3" d="M136,88.36a.89.89,0,1,0,.89.89A.89.89,0,0,0,136,88.36Z"/><path class="cls-3" d="M139,91.13a.89.89,0,1,0,.89.89A.89.89,0,0,0,139,91.13Z"/><path class="cls-3" d="M139,96.87a.89.89,0,1,0,.89.89A.89.89,0,0,0,139,96.87Z"/><path class="cls-3" d="M136,99.85a.89.89,0,1,0,.89.89A.89.89,0,0,0,136,99.85Z"/><path class="cls-3" d="M139,102.62a.89.89,0,1,0,.89.89A.89.89,0,0,0,139,102.62Z"/><path class="cls-3" d="M136,105.6a.89.89,0,1,0,.89.89A.89.89,0,0,0,136,105.6Z"/><path class="cls-3" d="M139,108.36a.89.89,0,1,0,.89.89A.89.89,0,0,0,139,108.36Z"/><path class="cls-3" d="M139,114.11a.89.89,0,1,0,.89.89A.89.89,0,0,0,139,114.11Z"/><path class="cls-3" d="M136,117.09a.89.89,0,1,0,.89.89A.89.89,0,0,0,136,117.09Z"/><path class="cls-3" d="M139,119.85a.89.89,0,1,0,.89.89A.89.89,0,0,0,139,119.85Z"/><path class="cls-3" d="M136,122.83a.89.89,0,1,0,.89.89A.89.89,0,0,0,136,122.83Z"/><path class="cls-3" d="M139,125.6a.89.89,0,1,0,.89.89A.89.89,0,0,0,139,125.6Z"/><path class="cls-3" d="M136,130.36a.89.89,0,1,0-.78-1.31q.1.54.2,1.08a.88.88,0,0,0,.59.23Z"/><path class="cls-3" d="M139,131.34a.89.89,0,1,0,.89.89A.89.89,0,0,0,139,131.34Z"/><path class="cls-3" d="M139,137.08a.89.89,0,1,0,.89.89A.89.89,0,0,0,139,137.08Z"/><path class="cls-3" d="M133.25,85.38a.89.89,0,1,0,.89.89A.89.89,0,0,0,133.25,85.38Z"/><path class="cls-3" d="M130.27,88.36a.89.89,0,1,0,.89.89A.89.89,0,0,0,130.27,88.36Z"/><path class="cls-3" d="M130.27,94.11a.89.89,0,1,0,.89.89A.89.89,0,0,0,130.27,94.11Z"/><path class="cls-3" d="M133.25,96.87a.89.89,0,1,0,.89.89A.89.89,0,0,0,133.25,96.87Z"/><path class="cls-3" d="M130.27,99.85a.89.89,0,1,0,.89.89A.89.89,0,0,0,130.27,99.85Z"/><path class="cls-3" d="M133.25,102.62a.89.89,0,1,0,.89.89A.89.89,0,0,0,133.25,102.62Z"/><path class="cls-3" d="M130.27,105.6a.89.89,0,1,0,.89.89A.89.89,0,0,0,130.27,105.6Z"/><path class="cls-3" d="M133.25,108.36a.89.89,0,1,0,.89.89A.89.89,0,0,0,133.25,108.36Z"/><path class="cls-3" d="M130.27,111.34a.89.89,0,1,0,.89.89A.89.89,0,0,0,130.27,111.34Z"/><path class="cls-3" d="M133.25,114.11a.89.89,0,1,0,.89.89A.89.89,0,0,0,133.25,114.11Z"/><path class="cls-3" d="M127.51,85.38a.89.89,0,1,0,.89.89A.89.89,0,0,0,127.51,85.38Z"/><path class="cls-3" d="M124.53,88.36a.89.89,0,1,0,.89.89A.89.89,0,0,0,124.53,88.36Z"/><path class="cls-3" d="M127.51,91.13a.89.89,0,1,0,.89.89A.89.89,0,0,0,127.51,91.13Z"/><path class="cls-3" d="M127.51,96.87a.89.89,0,1,0,.89.89A.89.89,0,0,0,127.51,96.87Z"/><path class="cls-3" d="M124.53,99.85a.89.89,0,1,0,.89.89A.89.89,0,0,0,124.53,99.85Z"/><path class="cls-3" d="M127.51,102.62a.89.89,0,1,0,.89.89A.89.89,0,0,0,127.51,102.62Z"/><path class="cls-3" d="M118.78,88.36a.89.89,0,1,0,.89.89A.89.89,0,0,0,118.78,88.36Z"/><path class="cls-3" d="M121.76,91.13a.89.89,0,1,0,.89.89A.89.89,0,0,0,121.76,91.13Z"/><path class="cls-3" d="M119.67,95a.89.89,0,1,0-.89.89A.89.89,0,0,0,119.67,95Z"/><path class="cls-3" d="M121.76,98.66a.89.89,0,1,0-.89-.89A.89.89,0,0,0,121.76,98.66Z"/><path class="cls-3" d="M116.91,92a.89.89,0,1,0-.89.89A.89.89,0,0,0,116.91,92Z"/><path class="cls-5" d="M131.66,102a2.29,2.29,0,0,1-1.29-.39l-5.9-4a2.31,2.31,0,0,1,.23-4,36.37,36.37,0,0,1,11.86-3.76,2.31,2.31,0,0,1,2.22,3.61l-5.23,7.51a2.32,2.32,0,0,1-1.9,1Zm5.07-11,.16,1.14a34.08,34.08,0,0,0-11.12,3.52h0l5.9,4,5.25-7.51Z"/><path class="cls-5" d="M149,110.5a4.82,4.82,0,0,1-2.71-.83l-4.11-2.78a4.86,4.86,0,0,1-1.27-6.8L145,94.18a4.88,4.88,0,0,1,4-2.08h0a36.64,36.64,0,0,1,6.74.58A4.52,4.52,0,0,1,159,95.34a4.57,4.57,0,0,1-.37,4.31L153,108.3a4.82,4.82,0,0,1-3.11,2.11,5,5,0,0,1-1,.1Zm0-16.11a2.57,2.57,0,0,0-2.09,1.1l-4.12,5.92a2.56,2.56,0,0,0,.67,3.58l4.11,2.78a2.56,2.56,0,0,0,3.58-.72l5.63-8.65a2.25,2.25,0,0,0,.18-2.15,2.2,2.2,0,0,0-1.65-1.32,33.79,33.79,0,0,0-6.31-.54Z"/><path class="cls-5" d="M171.33,93a5.63,5.63,0,0,0-2.76-3.57Q166,88,163.43,86.91a29.45,29.45,0,0,0-24.75-28.8,29.4,29.4,0,0,0-55.78,0A29.45,29.45,0,0,0,58.18,85.76q-2.56,1-5,2.27a5.62,5.62,0,0,0-2.22,8L83.6,148.65l20.68,32.86a6.34,6.34,0,0,0,5.32,3h.07a6.34,6.34,0,0,0,5.31-2.86L136.53,149l34-51.56a5.64,5.64,0,0,0,.76-4.46ZM161.1,86a58.06,58.06,0,0,0-50.49,4.87q-1.79-1.14-3.65-2.14c0-.52,0-1,0-1.58A27.1,27.1,0,0,1,161.1,86ZM110.78,40.3a27.15,27.15,0,0,1,25.35,17.51c-.7,0-1.4-.08-2.11-.08a29.37,29.37,0,0,0-23.24,11.42A29.37,29.37,0,0,0,87.54,57.73q-1.06,0-2.1.08A27.14,27.14,0,0,1,110.78,40.3ZM87.54,60a27.08,27.08,0,0,1,21.84,11.08,29.23,29.23,0,0,0-4.76,16c0,.13,0,.25,0,.38a58.16,58.16,0,0,0-44.1-2.62A27.14,27.14,0,0,1,87.54,60Zm46.93,87.89-21.42,32.44a4,4,0,0,1-3.39,1.82h0a4,4,0,0,1-3.4-1.9L85.54,147.43,52.87,94.79a3.32,3.32,0,0,1,1.31-4.71,55.68,55.68,0,0,1,80.3,57.85Zm-1.8-31.09,1.57-2.25a3,3,0,0,1,2.46-1.27,3,3,0,0,1,1.66.51l3.61,2.44a3,3,0,0,1,.83,4.1l-3.42,5.25a3,3,0,0,1-3.46,1.19A58,58,0,0,0,132.67,116.84Zm36-20.68-31.41,47.58v-.19a57.93,57.93,0,0,0-.83-14.29l.44,0a5.33,5.33,0,0,0,1.06-.11,5.24,5.24,0,0,0,3.38-2.3l3.42-5.25a5.31,5.31,0,0,0-1.47-7.26l-3.61-2.44a5.3,5.3,0,0,0-7.29,1.36l-.79,1.13a57.94,57.94,0,0,0-18.4-21.84h0l-.43-.31a55.72,55.72,0,0,1,54.75-.86,3.32,3.32,0,0,1,1.18,4.75Z"/><path class="cls-5" d="M89.25,102a2.32,2.32,0,0,1-1.9-1l-5.23-7.51a2.31,2.31,0,0,1,2.22-3.61A36.37,36.37,0,0,1,96.21,93.7a2.31,2.31,0,0,1,.23,4l-5.9,4a2.29,2.29,0,0,1-1.29.39ZM84,92.21l0,0,5.24,7.51,5.92-4v0A34.09,34.09,0,0,0,84,92.21Z"/><path class="cls-5" d="M102,118.39a4,4,0,0,1-3.32-1.72l-4.55-6.53a4,4,0,0,1,1.05-5.65l4-2.68a4,4,0,0,1,4.51,0,34.13,34.13,0,0,1,7,6.24,4,4,0,0,1,.9,3.12,4.05,4.05,0,0,1-1.74,2.8l-5.54,3.74A4,4,0,0,1,102,118.39Zm-.59-15a1.74,1.74,0,0,0-1,.3l-4,2.68a1.73,1.73,0,0,0-.45,2.43l4.55,6.53a1.74,1.74,0,0,0,2.39.45l5.54-3.74a1.75,1.75,0,0,0,.75-1.21,1.67,1.67,0,0,0-.38-1.33,31.84,31.84,0,0,0-6.49-5.82,1.72,1.72,0,0,0-1-.3Z"/><path class="cls-5" d="M72,110.5a4.9,4.9,0,0,1-1-.1,4.82,4.82,0,0,1-3.11-2.11l-5.63-8.65a4.57,4.57,0,0,1-.37-4.31,4.52,4.52,0,0,1,3.35-2.67A36.26,36.26,0,0,1,72,92.09a4.88,4.88,0,0,1,4,2.08l4.12,5.92a4.86,4.86,0,0,1-1.27,6.8l-4.12,2.78a4.81,4.81,0,0,1-2.71.83ZM71.7,94.39a33.8,33.8,0,0,0-6.05.54A2.2,2.2,0,0,0,64,96.25a2.25,2.25,0,0,0,.18,2.15L69.81,107a2.56,2.56,0,0,0,3.58.72L77.5,105a2.56,2.56,0,0,0,.67-3.58L74,95.49A2.57,2.57,0,0,0,72,94.39H71.7Z"/><path class="cls-5" d="M112.45,134.23a2.88,2.88,0,0,1-.55-.05,2.84,2.84,0,0,1-1.83-1.21l-5.59-8.32a2.86,2.86,0,0,1,.86-4l7.37-4.6a2.86,2.86,0,0,1,4,1,33.84,33.84,0,0,1,3.67,10.32,2.86,2.86,0,0,1-1.21,2.88L114,133.74h0a2.83,2.83,0,0,1-1.59.49Zm1.77-16.34a.55.55,0,0,0-.29.08l-7.37,4.6a.56.56,0,0,0-.17.79l5.59,8.32a.56.56,0,0,0,.78.15h0l5.14-3.47a.56.56,0,0,0,.24-.56,31.56,31.56,0,0,0-3.42-9.62.57.57,0,0,0-.36-.28l-.14,0Z"/><path class="cls-5" d="M122.4,147.64a3.1,3.1,0,0,1-2.55-1.34l-3.19-4.58a3.12,3.12,0,0,1,.81-4.36l3.6-2.43a3.09,3.09,0,0,1,3.15-.2,3.06,3.06,0,0,1,1.71,2.61,36.47,36.47,0,0,1-.44,7.68,3.11,3.11,0,0,1-2.39,2.54,3.14,3.14,0,0,1-.69.08Zm0-10.8-3.6,2.43a.82.82,0,0,0-.21,1.14l3.19,4.58a.79.79,0,0,0,.85.33.81.81,0,0,0,.63-.67,34.18,34.18,0,0,0,.42-7.2.78.78,0,0,0-.44-.67.81.81,0,0,0-.83.05Z"/><path class="cls-5" d="M109,169.08h0a4.55,4.55,0,0,1-3.78-2.07l-5.26-8.09a5.8,5.8,0,0,1,1.61-7.93l3.61-2.43a5.79,5.79,0,0,1,8,1.48l2.92,4.2a5.79,5.79,0,0,1,.65,5.37,36.27,36.27,0,0,1-3.87,7.46,4.57,4.57,0,0,1-3.79,2Zm-7.16-11.41,5.26,8.09a2.23,2.23,0,0,0,1.87,1h0a2.25,2.25,0,0,0,1.89-1,34,34,0,0,0,3.63-7,3.49,3.49,0,0,0-.39-3.24l-2.92-4.2a3.48,3.48,0,0,0-4.79-.89l-3.6,2.43a3.49,3.49,0,0,0-1,4.77Z"/><path class="cls-5" d="M95.56,147.64a5,5,0,0,1-1-.1,4.93,4.93,0,0,1-3.18-2.16l-3.75-5.76A5,5,0,0,1,89,132.8l3.64-2.46a5,5,0,0,1,6.86,1.28l3.93,5.64a5,5,0,0,1-1.3,7l-3.82,2.58a4.92,4.92,0,0,1-2.77.85Zm-1.61-15.4L90.3,134.7a2.68,2.68,0,0,0-.74,3.67l3.75,5.76a2.67,2.67,0,0,0,3.73.76l3.82-2.58a2.67,2.67,0,0,0,.7-3.74l-3.93-5.64a2.68,2.68,0,0,0-3.69-.69Z"/><path class="cls-5" d="M84,129.27a5.33,5.33,0,0,1-1.06-.11,5.24,5.24,0,0,1-3.38-2.3l-3.42-5.25a5.31,5.31,0,0,1,1.47-7.26l3.61-2.44h0a5.3,5.3,0,0,1,7.29,1.36l3.58,5.14a5.28,5.28,0,0,1-1.38,7.4L87,128.36A5.24,5.24,0,0,1,84,129.27Zm.17-16a3,3,0,0,0-1.66.51h0l-3.61,2.44a3,3,0,0,0-.83,4.1l3.42,5.25a3,3,0,0,0,4.17.85l3.78-2.55a3,3,0,0,0,.78-4.18l-3.58-5.14a3,3,0,0,0-2.46-1.28Z"/></g></g></svg>