<svg xmlns="http://www.w3.org/2000/svg" viewBox="0 0 218.05 217.36"><defs><style>.cls-1{fill:#74aaaa;fill-rule:evenodd;}.cls-2{fill:#ed6d3c;}.cls-3{fill:#f5d74e;}.cls-4{fill:#f3992b;}.cls-5{fill:#f4efea;}.cls-6{fill:#eae1db;}.cls-7{fill:#f7e87d;}.cls-8{fill:#b7d14f;}.cls-9{fill:#46b46a;}.cls-10{fill:#e84565;}.cls-11{fill:#c3335c;}</style></defs><title>資產 1</title><g id="圖層_2" data-name="圖層 2"><g id="圖層_1-2" data-name="圖層 1"><path class="cls-1" d="M0,108.68C0,48.66,48.81,0,109,0s109,48.66,109,108.68S169.24,217.36,109,217.36,0,168.7,0,108.68Z"/><path class="cls-2" d="M136.52,100.6l4.2,66.07a3.15,3.15,0,0,0,1.1-.2l.32-.07a25.21,25.21,0,0,0,10.54-4.91c5.28-4.34,8-10.72,8-18.94v-42Z"/><path class="cls-3" d="M53.25,100.6v33.56a3.15,3.15,0,0,0,2.11,3l84.32,29.37a3.14,3.14,0,0,0,1,.18h0V100.6Z"/><path class="cls-4" d="M103,153.71l36.72,12.79a3.14,3.14,0,0,0,1,.18h0V100.6H103Z"/><path class="cls-5" d="M53.25,119.62l87.47,30.46v-6.66L53.25,113Z"/><path class="cls-6" d="M103,136.93l37.76,13.15v-6.66L103,130.27Z"/><path class="cls-7" d="M142.32,68.53a3.15,3.15,0,0,0-2.64-.26L101.6,81.53c-19.8,6.89-40.27,14-46.25,16.11a3.15,3.15,0,0,0,0,5.94l54.94,19.13v15.65a7.34,7.34,0,0,0,14.68,0V127.82l14.69,5.12a3.15,3.15,0,0,0,2.64-.26c.75-.44,18.33-11,18.33-32.08,0-.87-.21-21.4-18.33-32.08Z"/><path class="cls-3" d="M142.32,68.53a3.15,3.15,0,0,0-2.64-.26L103,81.05v39.1l7.34,2.56v15.65a7.34,7.34,0,0,0,14.68,0V127.82l14.69,5.12a3.15,3.15,0,0,0,2.64-.26c.75-.44,18.33-11,18.33-32.08,0-.87-.21-21.4-18.33-32.08Z"/><circle class="cls-4" cx="139.67" cy="86.97" r="3.15"/><circle class="cls-4" cx="143.87" cy="101.65" r="3.15"/><circle class="cls-4" cx="133.38" cy="114.24" r="3.15"/><circle class="cls-4" cx="127.09" cy="99.55" r="3.15"/><path class="cls-8" d="M103,78.16A3.15,3.15,0,0,1,99.82,75a10.37,10.37,0,0,0-5.77-9.33l-.89-.44A3.15,3.15,0,1,1,96,59.61l.89.44a16.63,16.63,0,0,1,9.24,15A3.15,3.15,0,0,1,103,78.16Z"/><path class="cls-9" d="M103,78.16A3.15,3.15,0,0,0,106.11,75,16.67,16.67,0,0,0,103,65.22Z"/><path class="cls-10" d="M103,99.14A13.63,13.63,0,1,1,116.6,85.5,13.65,13.65,0,0,1,103,99.14Z"/><path class="cls-11" d="M116.6,85.5A13.65,13.65,0,0,0,103,71.87V99.14A13.65,13.65,0,0,0,116.6,85.5Z"/></g></g></svg>