<svg xmlns="http://www.w3.org/2000/svg" viewBox="0 0 336.58 336.5"><defs><style>.cls-1{fill:#f6c03d;fill-rule:evenodd;}.cls-2{fill:#41737c;}.cls-3{fill:#66b1c3;}.cls-4{fill:#c57f51;}.cls-5{fill:#ebcf5d;}.cls-6{fill:#ddbb5c;}.cls-7{fill:#ad8d46;}.cls-8{fill:#ecf0f0;}.cls-9{fill:#dc7b2a;}.cls-10{fill:#c9542a;}</style></defs><title>資產 2</title><g id="圖層_2" data-name="圖層 2"><g id="圖層_1-2" data-name="圖層 1"><path class="cls-1" d="M0,168.25A168.29,168.29,0,1,1,168.29,336.5,168.27,168.27,0,0,1,0,168.25Z"/><path class="cls-2" d="M227.79,250.72l-.07.07c0,10.23-22.74,25.68-59.43,25.68S108.86,261,108.86,250.79l-.07-.07C123,256,146.42,248,170.3,248S213.56,256,227.79,250.72Z"/><path class="cls-3" d="M272.25,188.39c-9.28,25.2-24.51,44.31-44.46,62.32-14.23,5.32-26.48,11.92-59.5,11.92-35.46,0-45.27-6.6-59.5-11.92-19.92-18-35.14-37.09-44.42-62.25,3.59,5.1,11-23.18,21.17-19.29,4.59,1.8,9.68-3.92,15.3-2.53,3.49.92,7.15,1.72,11,2.46s7.52-9.58,11.52-9c5.69.84,11.63-2.13,17.83-1.61,3.19.22,6.42.44,9.68.62q2.75.16,5.61.22c3.89.15,7.85.22,11.85.22,1.58,0,3.12,0,4.66,0,6.57-.07,12.95-.37,19.11-.77,7.89-.59,15.48,2.24,22.6,1.17,6.09-.92,11.89,9,17.24,7.7h0c3.59-.81,7-1.72,10.2-2.71,5.21-1.54,9.94,4,14,2.16C263.78,163.56,269.32,192.65,272.25,188.39Z"/><path class="cls-2" d="M189.53,148.74,185,174.2a78.19,78.19,0,0,0-12.23,1c-8.29,0-12.44,3-18.42,7.85-1.25.07-8.85-.29-10.1-.18-5.25-5-5.93-8.07-13.75-8.07-11.66,0-18.88,0-23.61,9.78-11,4-12.3,6.8-12.3,12.3,0,1.58-10.07,3.88-9,5.35-10.2-3.89-17.57-8.62-21.17-13.72v0s0,0,0-.07a12,12,0,0,1-2.42-7c0-18.34,47.62-33.23,106.38-33.23C175.55,148.08,182.67,148.3,189.53,148.74Z"/><path class="cls-2" d="M274.67,181.31a12,12,0,0,1-2.42,7v0a39.16,39.16,0,0,1-16.07,11.67,32.5,32.5,0,0,0-4.37-13.61,32.94,32.94,0,0,0-28.5-16.36c-7,0-10.58,5.32-15.89,9.06h-1.61c-2.42-.33.62,2.66-1.91,2.4l-5.7.15c-.07,0-5-.61-5.07-.61-.66-.59-4.37-4.81-5.07-5.32l27-24.28C250.39,156.88,274.67,168.22,274.67,181.31Z"/><path class="cls-2" d="M206.26,150.28l-4.59,27.95-15.27-11.8,10.8-17.1C200.28,149.58,203.29,149.91,206.26,150.28Z"/><path class="cls-4" d="M98.63,197.16a28.27,28.27,0,0,0,2.2,9.83,123.32,123.32,0,0,1-15.3-4.81,7.76,7.76,0,0,1-1.61-4.59c0-5.5,6.57-10.53,17.57-14.56a29.07,29.07,0,0,0-2.9,12.73C98.59,196.24,98.59,196.72,98.63,197.16Z"/><path class="cls-4" d="M151.86,174.2a20.82,20.82,0,0,0-2.16,1.91,16.55,16.55,0,0,0-1.58-1.65C149.36,174.34,150.61,174.27,151.86,174.2Z"/><path class="cls-4" d="M204.46,176l-.77.55h0s0,0-.11.11a26,26,0,0,0-2.86,2.46h0a28.73,28.73,0,0,0-3.71-3.92s-.07-.07-.11-.07.11,0,.18,0h0C199.58,175.41,202,175.7,204.46,176Z"/><path class="cls-5" d="M147.5,205.55c0,4.29-7.79,4.12-6.36,7.93-4.88-.4-9.61-.92-14.2-1.58-1.21-.11-2.42-.29-3.63-.48s-2.42-.33-3.63-.55c-1.47-.22-2.9-.48-4.29-.73v0c-1.21-.18-2.42-.4-3.59-.66s-2.5-.48-3.71-.77c-2.5-.51-4.92-1.06-7.26-1.69a28.27,28.27,0,0,1-2.2-9.83c0-.44,0-.92,0-1.39a29.35,29.35,0,0,1,49.52-21.31,16.55,16.55,0,0,1,1.58,1.65c-5.1,4.84,1.39,11.74,0,18.91A83.89,83.89,0,0,0,147.5,205.55Z"/><path class="cls-6" d="M201.67,203.84c0,3.74-10.74,6.6-9.6,9.9-5,.33-10.16.59-15.44.7-1.21,0-2.42.07-3.67.07s-2.46,0-3.74,0h-.93c-2.75,0-5.47,0-8.18-.15-1.25,0-2.46,0-3.67-.07s-2.53-.07-3.78-.15c-.62,0-1.21,0-1.83-.07-3.26-.18-6.49-.4-9.68-.62a34.66,34.66,0,0,1-2.2-12.21,33.69,33.69,0,0,1,.66-6.71,34.48,34.48,0,0,1,10.09-18.45,20.82,20.82,0,0,1,2.16-1.91,34.76,34.76,0,0,1,30.3-6.75l-6.27,16a3.67,3.67,0,0,0,2.05,4.77,3.57,3.57,0,0,0,1.36.26,3.67,3.67,0,0,0,3.41-2.31l5.47-13.9a3.37,3.37,0,0,0,1.07,1.8,3.64,3.64,0,0,0,5.17-.18l.37-.37c.7.51,1.39,1.1,2.05,1.69,0,0,.07,0,.11.07a28.73,28.73,0,0,1,3.71,3.92c-4.7,4.4,2.25,11,.82,17.61-.55,2.31-11.16,3.85-11.16,6.31Z"/><path class="cls-5" d="M256.18,200.06a102.46,102.46,0,0,1-10.45,4c-1.17.4-2.38.77-3.59,1.14s-2.31.7-3.52,1c-1,.29-2.05.59-3.12.84s-2.35.59-3.56.84h0c-1.21.29-2.42.59-3.7.81-3.19.73-6.49,1.36-9.94,1.91-1.17.22-2.38.4-3.59.59s-2.42.37-3.67.51c-6.05.84-12.4,1.5-18.93,2a32.71,32.71,0,0,1-1.76-10.64v0a30.77,30.77,0,0,1,.81-7.15,32.45,32.45,0,0,1,9.54-16.76h0a26,26,0,0,1,2.86-2.46c.07-.11.07-.11.11-.11h0l.77-.55h0a33,33,0,0,1,51.69,24Z"/><path class="cls-7" d="M169.65,188.17c-.55.22-13.72,6-9.61,25.38a3.37,3.37,0,0,1,.07.84c-1.25,0-2.46,0-3.67-.07s-2.53-.07-3.78-.15c-3.78-19.92,7.59-30.15,14.27-32.83a3.67,3.67,0,1,1,2.71,6.82Z"/><path class="cls-7" d="M177.28,206.37s-1.25.88-1.25,3.78a13.5,13.5,0,0,0,.48,3.48,3,3,0,0,1,.11.81c-1.21,0-2.42.07-3.67.07s-2.46,0-3.74,0c-2.38-11,4.47-14.56,4.77-14.71a3.67,3.67,0,0,1,3.3,6.53Z"/><path class="cls-7" d="M125.63,184.5c-.48.18-12.14,5.36-10.2,24.58a3.2,3.2,0,0,1,0,1c-1.21-.18-2.42-.4-3.59-.66s-2.5-.48-3.71-.77c-2-24,14.12-30.7,14.82-31a3.67,3.67,0,1,1,2.71,6.82Z"/><path class="cls-7" d="M130.55,202a16.61,16.61,0,0,0-3.56,9.72.34.34,0,0,1,0,.18c-1.21-.11-2.42-.29-3.63-.48s-2.42-.33-3.63-.55a23.23,23.23,0,0,1,5.65-14,3.67,3.67,0,0,1,5.21,5.17Z"/><path class="cls-7" d="M245.73,204.09c-1.17.4-2.38.77-3.59,1.14s-2.31.7-3.52,1a2.86,2.86,0,0,1-.15-.81A20.48,20.48,0,0,0,229,188a3.67,3.67,0,1,1,3.3-6.53A27.46,27.46,0,0,1,245.73,204.09Z"/><path class="cls-7" d="M218.25,210.66c-1.17.22-2.38.4-3.59.59s-2.42.37-3.67.51a24,24,0,0,0-8-12.95,3.67,3.67,0,1,1,4-6.09,30.93,30.93,0,0,1,11.23,17.61A1,1,0,0,1,218.25,210.66Z"/><path class="cls-7" d="M235.49,207.1c-1.17.29-2.35.59-3.56.84h0c-1.21.29-2.42.59-3.7.81a62.11,62.11,0,0,0-14.53-17.46,3.68,3.68,0,0,1,4.62-5.72,67.76,67.76,0,0,1,16.95,20.84A5.26,5.26,0,0,1,235.49,207.1Z"/><path class="cls-4" d="M116.94,133.4a3.67,3.67,0,0,1-2.63-6.24,12.73,12.73,0,0,0,2.63-8.44,12.7,12.7,0,0,0-2.63-8.44,19.49,19.49,0,0,1-4.7-13.57,19.48,19.48,0,0,1,4.74-13.6,3.67,3.67,0,1,1,5.19,5.19,12.76,12.76,0,0,0-2.59,8.41,12.69,12.69,0,0,0,2.63,8.44,19.5,19.5,0,0,1,4.7,13.57,19.48,19.48,0,0,1-4.74,13.6A3.66,3.66,0,0,1,116.94,133.4Z"/><path class="cls-4" d="M138.95,111.39a3.67,3.67,0,0,1-2.63-6.24,12.74,12.74,0,0,0,2.63-8.44,12.69,12.69,0,0,0-2.63-8.44,19.49,19.49,0,0,1-4.7-13.57,19.48,19.48,0,0,1,4.74-13.6,3.67,3.67,0,0,1,5.19,5.19,12.75,12.75,0,0,0-2.59,8.41,12.7,12.7,0,0,0,2.63,8.44,19.49,19.49,0,0,1,4.7,13.57,19.48,19.48,0,0,1-4.74,13.6A3.67,3.67,0,0,1,138.95,111.39Z"/><path class="cls-4" d="M161,133.4a3.67,3.67,0,0,1-2.63-6.24,12.72,12.72,0,0,0,2.63-8.44,12.69,12.69,0,0,0-2.63-8.44,19.5,19.5,0,0,1-4.7-13.57,19.49,19.49,0,0,1,4.74-13.6,3.67,3.67,0,1,1,5.19,5.19A12.77,12.77,0,0,0,161,96.72a12.71,12.71,0,0,0,2.63,8.44,19.49,19.49,0,0,1,4.7,13.57,19.49,19.49,0,0,1-4.74,13.6A3.66,3.66,0,0,1,161,133.4Z"/><path class="cls-8" d="M146.28,247.12c-26.89,0-38.78-11.59-39.28-12.08a3.67,3.67,0,0,1,5.17-5.2c.24.23,10.64,9.95,34.12,9.95a3.67,3.67,0,0,1,0,7.34Z"/><path class="cls-9" d="M230.4,65.06l-33.2,84.26L189.86,168l-.77,2-.92,2.27-5.47,13.9a3.67,3.67,0,0,1-3.41,2.31,3.57,3.57,0,0,1-1.36-.26,3.67,3.67,0,0,1-2.05-4.77l6.27-16,7.37-18.71,34-86.39a3.67,3.67,0,0,1,6.82,2.71Z"/><path class="cls-10" d="M273.68,88.21,215.1,151.49l-20.32,22-.37.37a3.64,3.64,0,0,1-5.17.18,3.37,3.37,0,0,1-1.07-1.8,3.51,3.51,0,0,1,.33-2.57,2.87,2.87,0,0,1,.55-.81l.81-.88,16.4-17.68,62.07-67.06a3.67,3.67,0,0,1,5.36,5Z"/></g></g></svg>