<svg xmlns="http://www.w3.org/2000/svg" viewBox="0 0 23.3 21.57"><defs><style>.cls-1{fill:#fff;}.cls-2{stroke:#fff;stroke-miterlimit:10;stroke-width:0.25px;}</style></defs><g id="圖層_2" data-name="圖層 2"><g id="圖層_1-2" data-name="圖層 1"><path class="cls-1" d="M20,1.48H3.29A1.81,1.81,0,0,0,1.48,3.29V13.52a1.81,1.81,0,0,0,1.81,1.82H4.63v3.41l4.9-3.41H20a1.82,1.82,0,0,0,1.82-1.82V3.29A1.82,1.82,0,0,0,20,1.48ZM17,12H6.29V10.66H17Zm0-2.88H6.29V7.78H17Zm0-2.88H6.29V4.9H17Z"/><path class="cls-2" d="M20,.13H3.29A3.17,3.17,0,0,0,.13,3.29V13.52a3.16,3.16,0,0,0,3.15,3.17v4.64L10,16.69H20a3.17,3.17,0,0,0,3.17-3.17V3.29A3.17,3.17,0,0,0,20,.13Zm1.82,13.39A1.82,1.82,0,0,1,20,15.34H9.53l-4.9,3.41V15.34H3.29a1.81,1.81,0,0,1-1.81-1.82V3.29A1.81,1.81,0,0,1,3.29,1.48H20a1.82,1.82,0,0,1,1.82,1.81Z"/><rect x="6.29" y="4.9" width="10.71" height="1.35"/><rect x="6.29" y="7.78" width="10.71" height="1.35"/><rect x="6.29" y="10.66" width="10.71" height="1.35"/></g></g></svg>