<svg xmlns="http://www.w3.org/2000/svg" viewBox="0 0 23.53 20.2"><defs><style>.cls-1{fill:#fff;}.cls-2{stroke:#fff;stroke-miterlimit:10;stroke-width:0.25px;}</style></defs><g id="圖層_2" data-name="圖層 2"><g id="圖層_1-2" data-name="圖層 1"><path class="cls-1" d="M20.75,3.07a3.36,3.36,0,0,0-1.06-.78,5.11,5.11,0,0,0-1.22-.4,7.35,7.35,0,0,0-1.27-.1,3.74,3.74,0,0,0-1.46.33A6.83,6.83,0,0,0,14.3,3c-.43.33-.81.65-1.12.94s-.57.55-.78.79a.84.84,0,0,1-1.27,0c-.21-.24-.47-.5-.78-.79S9.66,3.28,9.23,3a6.83,6.83,0,0,0-1.44-.83,3.74,3.74,0,0,0-1.46-.33,7.35,7.35,0,0,0-1.27.1,5.11,5.11,0,0,0-1.22.4,3.36,3.36,0,0,0-1.06.78,3.46,3.46,0,0,0-.71,1.28A5.49,5.49,0,0,0,1.79,6.2q0,2.19,2.43,4.62l7.54,7.27,7.54-7.26q2.44-2.45,2.44-4.63a5.49,5.49,0,0,0-.28-1.85A3.46,3.46,0,0,0,20.75,3.07Z"/><path class="cls-2" d="M17.19.13A5.36,5.36,0,0,0,15.55.4,6.64,6.64,0,0,0,14,1.16a15.05,15.05,0,0,0-1.24.89c-.34.27-.67.57-1,.88a11.62,11.62,0,0,0-1-.88,15.05,15.05,0,0,0-1.24-.89A6.64,6.64,0,0,0,8,.4,5.37,5.37,0,0,0,6.33.13,6.22,6.22,0,0,0,1.77,1.74,5.93,5.93,0,0,0,.13,6.2,5.85,5.85,0,0,0,.43,8a7.68,7.68,0,0,0,.7,1.57A12.59,12.59,0,0,0,2,10.84c.33.41.57.69.72.85a4.22,4.22,0,0,0,.36.33l8.1,7.82a.81.81,0,0,0,1.15,0l8.09-7.79q3-3,3-5.85a5.94,5.94,0,0,0-1.65-4.46A6.22,6.22,0,0,0,17.19.13Zm2.11,10.7-7.54,7.26L4.22,10.82Q1.79,8.39,1.79,6.2a5.49,5.49,0,0,1,.28-1.85,3.46,3.46,0,0,1,.71-1.28,3.36,3.36,0,0,1,1.06-.78,5.11,5.11,0,0,1,1.22-.4,7.35,7.35,0,0,1,1.27-.1,3.74,3.74,0,0,1,1.46.33A6.83,6.83,0,0,1,9.23,3c.43.33.81.65,1.12.94s.57.55.78.79a.84.84,0,0,0,1.27,0c.21-.24.47-.5.78-.79s.69-.61,1.12-.94a6.83,6.83,0,0,1,1.44-.83,3.74,3.74,0,0,1,1.46-.33,7.35,7.35,0,0,1,1.27.1,5.11,5.11,0,0,1,1.22.4,3.36,3.36,0,0,1,1.06.78,3.46,3.46,0,0,1,.71,1.28,5.49,5.49,0,0,1,.28,1.85Q21.74,8.39,19.3,10.83Z"/></g></g></svg>