<svg xmlns="http://www.w3.org/2000/svg" xmlns:xlink="http://www.w3.org/1999/xlink" viewBox="0 0 500 500"><defs><style>.cls-1{isolation:isolate;}.cls-2,.cls-33{fill:#fff;}.cls-3{fill:url(#linear-gradient);}.cls-20,.cls-22,.cls-29,.cls-30,.cls-36,.cls-4{fill:none;}.cls-4{stroke:#ebe1ff;stroke-linecap:round;stroke-linejoin:round;stroke-width:3px;}.cls-5{fill:url(#linear-gradient-2);}.cls-6{fill:url(#linear-gradient-3);}.cls-7{fill:url(#linear-gradient-4);}.cls-8{fill:#ebe1ff;}.cls-34,.cls-9{fill:#ff3162;}.cls-10,.cls-9{opacity:0.05;}.cls-11{fill:#2b144f;}.cls-12{fill:url(#linear-gradient-5);}.cls-13{opacity:0.15;}.cls-13,.cls-21,.cls-33{mix-blend-mode:overlay;}.cls-14{fill:url(#linear-gradient-6);}.cls-15{fill:url(#linear-gradient-7);}.cls-16{fill:url(#linear-gradient-8);}.cls-17{fill:url(#linear-gradient-9);}.cls-18{fill:url(#linear-gradient-10);}.cls-19{fill:url(#linear-gradient-11);}.cls-20{stroke:#000;}.cls-20,.cls-22,.cls-29,.cls-30,.cls-36{stroke-miterlimit:10;}.cls-21{opacity:0.25;}.cls-22{stroke:#2b144f;}.cls-23{fill:#ffc5c5;}.cls-24{fill:url(#linear-gradient-12);}.cls-25{fill:url(#linear-gradient-13);}.cls-26{fill:url(#linear-gradient-14);}.cls-27{fill:url(#linear-gradient-15);}.cls-28{fill:url(#linear-gradient-16);}.cls-29{stroke:url(#linear-gradient-17);}.cls-30{stroke:url(#linear-gradient-18);}.cls-31{fill:url(#linear-gradient-19);}.cls-32{fill:url(#linear-gradient-20);}.cls-35{fill:url(#linear-gradient-21);}.cls-36{stroke:#fff;}.cls-37{fill:url(#linear-gradient-22);}</style><linearGradient id="linear-gradient" x1="80.53" y1="282.49" x2="198.19" y2="385.95" gradientUnits="userSpaceOnUse"><stop offset="0" stop-color="#faf8ff"/><stop offset="1" stop-color="#eee9ff"/></linearGradient><linearGradient id="linear-gradient-2" x1="521.97" y1="101.12" x2="639.63" y2="204.58" gradientTransform="matrix(-1, 0, 0, 1, 921.77, 0)" xlink:href="#linear-gradient"/><linearGradient id="linear-gradient-3" x1="536.28" y1="356.64" x2="653.94" y2="460.09" gradientTransform="matrix(-0.77, -0.64, -0.64, 0.77, 1061.25, 409.78)" xlink:href="#linear-gradient"/><linearGradient id="linear-gradient-4" x1="1050.5" y1="383.08" x2="1136.83" y2="458.98" gradientTransform="matrix(1, 0.02, -0.02, 1, -917.47, -322.92)" xlink:href="#linear-gradient"/><linearGradient id="linear-gradient-5" x1="206.89" y1="295.05" x2="192.98" y2="181.98" gradientUnits="userSpaceOnUse"><stop offset="0" stop-color="#ff5a5a"/><stop offset="1" stop-color="#ff8585"/></linearGradient><linearGradient id="linear-gradient-6" x1="193.98" y1="187.24" x2="151.95" y2="171.56" gradientUnits="userSpaceOnUse"><stop offset="0" stop-color="#ffc5c5"/><stop offset="1" stop-color="#f7adad"/></linearGradient><linearGradient id="linear-gradient-7" x1="188.44" y1="204.42" x2="176.21" y2="191.79" xlink:href="#linear-gradient-6"/><linearGradient id="linear-gradient-8" x1="268.51" y1="179.76" x2="244.39" y2="195.15" xlink:href="#linear-gradient-6"/><linearGradient id="linear-gradient-9" x1="173" y1="302.49" x2="151.89" y2="263.22" xlink:href="#linear-gradient-6"/><linearGradient id="linear-gradient-10" x1="171.81" y1="369.26" x2="192.88" y2="369.26" gradientUnits="userSpaceOnUse"><stop offset="0" stop-color="#c3abff"/><stop offset="1" stop-color="#dfcfff"/></linearGradient><linearGradient id="linear-gradient-11" x1="211.09" y1="384.41" x2="230.75" y2="384.41" xlink:href="#linear-gradient-10"/><linearGradient id="linear-gradient-12" x1="310.35" y1="188.77" x2="371.56" y2="188.77" gradientTransform="translate(-41.85 70.94) rotate(-9.59)" xlink:href="#linear-gradient-6"/><linearGradient id="linear-gradient-13" x1="394.38" y1="182.72" x2="428.52" y2="154.3" gradientTransform="translate(-41.85 70.94) rotate(-9.59)" xlink:href="#linear-gradient-6"/><linearGradient id="linear-gradient-14" x1="396.77" y1="262.79" x2="435.77" y2="262.79" gradientTransform="translate(-41.85 70.94) rotate(-9.59)" xlink:href="#linear-gradient-6"/><linearGradient id="linear-gradient-15" x1="276.58" y1="331.39" x2="388.18" y2="199.36" gradientTransform="translate(-41.85 70.94) rotate(-9.59)" xlink:href="#linear-gradient-10"/><linearGradient id="linear-gradient-16" x1="280.01" y1="334.29" x2="391.61" y2="202.27" gradientTransform="translate(-41.85 70.94) rotate(-9.59)" xlink:href="#linear-gradient-10"/><linearGradient id="linear-gradient-17" x1="301.63" y1="335.1" x2="312.63" y2="335.1" gradientTransform="translate(-41.85 70.94) rotate(-9.59)" xlink:href="#linear-gradient-5"/><linearGradient id="linear-gradient-18" x1="258.43" y1="356.33" x2="270.8" y2="356.33" gradientTransform="translate(-41.85 70.94) rotate(-9.59)" xlink:href="#linear-gradient-5"/><linearGradient id="linear-gradient-19" x1="436.15" y1="182.61" x2="432.3" y2="126.07" xlink:href="#linear-gradient-5"/><linearGradient id="linear-gradient-20" x1="112.47" y1="198.47" x2="118.39" y2="238.44" gradientTransform="translate(21.49 -9.8) rotate(5.29)" xlink:href="#linear-gradient"/><linearGradient id="linear-gradient-21" x1="109.43" y1="227.02" x2="105.58" y2="170.47" gradientTransform="translate(13.42 -15.27)" xlink:href="#linear-gradient-5"/><linearGradient id="linear-gradient-22" x1="453.22" y1="172.82" x2="447" y2="217.52" gradientTransform="matrix(0.08, 1, -1, 0.08, 605.89, -276.22)" xlink:href="#linear-gradient"/></defs><title>second_screen_twoPeople</title><g class="cls-1"><g id="BACKGROUND"><rect class="cls-2" width="500" height="500"/></g><g id="OBJECTS"><path class="cls-3" d="M181.86,400.76c-12.18-14.9-95.26-49.94-109-91.47s8.84-57.37,34.52-46.43,32.4,76.18,56.74,97.85,35,14.7,35,14.7"/><path class="cls-4" d="M82.17,261.53S141,366.24,180.53,388.59"/><path class="cls-4" d="M77,318.33s24.49-8.25,37.67-4.44c2.22-22.83,10.82-31,10.82-31"/><path class="cls-4" d="M109,351.62a46.14,46.14,0,0,1,28.18-6.32c-1-11.62,5.47-21.32,5.47-21.32"/><path class="cls-4" d="M135.65,370s13.18-6.23,18.51-4.24c-2.36-6.89,2.22-14.11,2.22-14.11"/><path class="cls-5" d="M298.47,219.38c12.18-14.9,95.26-49.94,109-91.47s-8.84-57.37-34.52-46.43-32.4,76.18-56.74,97.86-35,14.7-35,14.7"/><path class="cls-4" d="M398.17,80.16s-58.86,104.71-98.36,127.06"/><path class="cls-4" d="M403.35,137s-24.49-8.25-37.67-4.44c-2.22-22.83-10.82-31-10.82-31"/><path class="cls-4" d="M371.37,170.25a46.14,46.14,0,0,0-28.18-6.32c1-11.62-5.47-21.32-5.47-21.32"/><path class="cls-4" d="M344.69,188.61s-13.18-6.23-18.51-4.24c2.36-6.89-2.22-14.11-2.22-14.11"/><path class="cls-6" d="M267.14,371.76c18.87-3.77,105.3,21.9,142.26-1.47s29.6-49.93,2.81-57.79-73.4,38.28-106,39.57-36.4-10.88-36.4-10.88"/><path class="cls-4" d="M432.56,327.51s-112,43.52-156.67,35.7"/><path class="cls-4" d="M400.5,374.68s-13.68-21.92-26.28-27.35c12.78-19.05,11.3-30.79,11.3-30.79"/><path class="cls-4" d="M354.65,380.09a46.14,46.14,0,0,0-17.76-22.78c8.18-8.32,9.31-19.95,9.31-19.95"/><path class="cls-4" d="M322.38,377.33s-6.22-13.18-11.61-15C317,358.47,318,350,318,350"/><path class="cls-7" d="M196.73,171.8c-8.69-11.13-69.06-38.19-78.45-68.87S125.7,61,144.37,69.43s22.52,56.41,40,72.71,25.46,11.36,25.46,11.36"/><path class="cls-4" d="M125.87,68s41.47,77.77,70.09,94.81"/><path class="cls-4" d="M121.14,109.63s18.1-5.65,27.7-2.64c2-16.71,8.44-22.53,8.44-22.53"/><path class="cls-4" d="M144.06,134.57a33.85,33.85,0,0,1,20.78-4.18c-.57-8.54,4.36-15.55,4.36-15.55"/><path class="cls-4" d="M163.33,148.47s9.77-4.36,13.65-2.81c-1.62-5.09,1.86-10.32,1.86-10.32"/><rect class="cls-8" x="167" y="82.37" width="178.61" height="347.51" rx="11.64" ry="11.64"/><rect class="cls-2" x="173.14" y="93.02" width="166.33" height="326.2" rx="10.88" ry="10.88"/><path class="cls-9" d="M287.54,115.45H186.12a1.22,1.22,0,0,0-.86,2.08l7.62,7.62v20.26a3.35,3.35,0,0,0,3.35,3.35h91.32a3.35,3.35,0,0,0,3.35-3.35V118.8A3.35,3.35,0,0,0,287.54,115.45Z"/><path class="cls-10" d="M272.78,123.39h-60.7a.54.54,0,0,1-.54-.54h0a.54.54,0,0,1,.54-.54h60.7a.54.54,0,0,1,.54.54h0A.54.54,0,0,1,272.78,123.39Z"/><path class="cls-10" d="M272.78,129.2h-60.7a.54.54,0,0,1-.54-.54h0a.54.54,0,0,1,.54-.54h60.7a.54.54,0,0,1,.54.54h0A.54.54,0,0,1,272.78,129.2Z"/><path class="cls-10" d="M272.78,135h-60.7a.54.54,0,0,1-.54-.54h0a.54.54,0,0,1,.54-.54h60.7a.54.54,0,0,1,.54.54h0A.54.54,0,0,1,272.78,135Z"/><path class="cls-10" d="M272.78,140.82h-60.7a.54.54,0,0,1-.54-.54h0a.54.54,0,0,1,.54-.54h60.7a.54.54,0,0,1,.54.54h0A.54.54,0,0,1,272.78,140.82Z"/><path class="cls-9" d="M287.54,242.58H186.12a1.22,1.22,0,0,0-.86,2.08l7.62,7.62v20.26a3.35,3.35,0,0,0,3.35,3.35h91.32a3.35,3.35,0,0,0,3.35-3.35V245.92A3.35,3.35,0,0,0,287.54,242.58Z"/><path class="cls-10" d="M272.78,250.51h-60.7a.54.54,0,0,1-.54-.54h0a.54.54,0,0,1,.54-.54h60.7a.54.54,0,0,1,.54.54h0A.54.54,0,0,1,272.78,250.51Z"/><path class="cls-10" d="M272.78,256.32h-60.7a.54.54,0,0,1-.54-.54h0a.54.54,0,0,1,.54-.54h60.7a.54.54,0,0,1,.54.54h0A.54.54,0,0,1,272.78,256.32Z"/><path class="cls-10" d="M272.78,262.13h-60.7a.54.54,0,0,1-.54-.54h0a.54.54,0,0,1,.54-.54h60.7a.54.54,0,0,1,.54.54h0A.54.54,0,0,1,272.78,262.13Z"/><path class="cls-10" d="M272.78,267.94h-60.7a.54.54,0,0,1-.54-.54h0a.54.54,0,0,1,.54-.54h60.7a.54.54,0,0,1,.54.54h0A.54.54,0,0,1,272.78,267.94Z"/><path class="cls-9" d="M287.54,355H186.12a1.22,1.22,0,0,0-.86,2.08l7.62,7.62V385a3.35,3.35,0,0,0,3.35,3.35h91.32a3.35,3.35,0,0,0,3.35-3.35V358.39A3.35,3.35,0,0,0,287.54,355Z"/><path class="cls-10" d="M272.78,363h-60.7a.54.54,0,0,1-.54-.54h0a.54.54,0,0,1,.54-.54h60.7a.54.54,0,0,1,.54.54h0A.54.54,0,0,1,272.78,363Z"/><path class="cls-10" d="M272.78,368.79h-60.7a.54.54,0,0,1-.54-.54h0a.54.54,0,0,1,.54-.54h60.7a.54.54,0,0,1,.54.54h0A.54.54,0,0,1,272.78,368.79Z"/><path class="cls-10" d="M272.78,374.6h-60.7a.54.54,0,0,1-.54-.54h0a.54.54,0,0,1,.54-.54h60.7a.54.54,0,0,1,.54.54h0A.54.54,0,0,1,272.78,374.6Z"/><path class="cls-10" d="M272.78,380.41h-60.7a.54.54,0,0,1-.54-.54h0a.54.54,0,0,1,.54-.54h60.7a.54.54,0,0,1,.54.54h0A.54.54,0,0,1,272.78,380.41Z"/><path class="cls-9" d="M226.72,187.66H328.15a1.22,1.22,0,0,1,.86,2.08l-7.62,7.62v20.26A3.35,3.35,0,0,1,318,221H226.72a3.35,3.35,0,0,1-3.35-3.35V191A3.35,3.35,0,0,1,226.72,187.66Z"/><path class="cls-10" d="M241.49,195.59h60.7a.54.54,0,0,0,.54-.54h0a.54.54,0,0,0-.54-.54h-60.7a.54.54,0,0,0-.54.54h0A.54.54,0,0,0,241.49,195.59Z"/><path class="cls-10" d="M241.49,201.41h60.7a.54.54,0,0,0,.54-.54h0a.54.54,0,0,0-.54-.54h-60.7a.54.54,0,0,0-.54.54h0A.54.54,0,0,0,241.49,201.41Z"/><path class="cls-10" d="M241.49,207.22h60.7a.54.54,0,0,0,.54-.54h0a.54.54,0,0,0-.54-.54h-60.7a.54.54,0,0,0-.54.54h0A.54.54,0,0,0,241.49,207.22Z"/><path class="cls-10" d="M241.49,213h60.7a.54.54,0,0,0,.54-.54h0a.54.54,0,0,0-.54-.54h-60.7a.54.54,0,0,0-.54.54h0A.54.54,0,0,0,241.49,213Z"/><path class="cls-9" d="M226.72,299.89H328.15A1.22,1.22,0,0,1,329,302l-7.62,7.62v20.26a3.35,3.35,0,0,1-3.35,3.35H226.72a3.35,3.35,0,0,1-3.35-3.35V303.24A3.35,3.35,0,0,1,226.72,299.89Z"/><path class="cls-10" d="M241.49,307.83h60.7a.54.54,0,0,0,.54-.54h0a.54.54,0,0,0-.54-.54h-60.7a.54.54,0,0,0-.54.54h0A.54.54,0,0,0,241.49,307.83Z"/><path class="cls-10" d="M241.49,313.64h60.7a.54.54,0,0,0,.54-.54h0a.54.54,0,0,0-.54-.54h-60.7a.54.54,0,0,0-.54.54h0A.54.54,0,0,0,241.49,313.64Z"/><path class="cls-10" d="M241.49,319.45h60.7a.54.54,0,0,0,.54-.54h0a.54.54,0,0,0-.54-.54h-60.7a.54.54,0,0,0-.54.54h0A.54.54,0,0,0,241.49,319.45Z"/><path class="cls-10" d="M241.49,325.26h60.7a.54.54,0,0,0,.54-.54h0a.54.54,0,0,0-.54-.54h-60.7a.54.54,0,0,0-.54.54h0A.54.54,0,0,0,241.49,325.26Z"/><path class="cls-11" d="M183.08,169.54s4.54,3,5.62,11.3,4.74,23.38-7.4,27.13a20.51,20.51,0,0,1-20.22-4.75s-1.19-9.54-1.29-11.52.59-8.59.59-8.59.89-9,2.86-9.47S183.08,169.54,183.08,169.54Z"/><path class="cls-11" d="M186.88,167.62a8.42,8.42,0,0,1-3.52,4.08c-4.58,2.79-11.3,1.84-12.17,1.84-1.82,5.51-1.22,8.78-1.66,8s-3.7-2.33-4.64.15c-.86,2.27,1.23,4,4.54,3.66a8.47,8.47,0,0,0,1-.15,11.79,11.79,0,0,1-.12,3.18c-.73,5.78,7.2,15.5,7.2,15.5s-23.58,16.4-28.32,17.66-9.92-4.29-4.89-11.17,9.84-24.35,9.55-34.64,5.55-11.42,9.2-11.81,4.64-6.37,11.89-7.8S190,160,186.88,167.62Z"/><path class="cls-12" d="M254.52,194.85c-4.59,5.08-14,10.61-23.75,14.64s-19.72,6.57-25.49,5.68a18.79,18.79,0,0,1,.64,6.6c0,1.29-.11,2.61-.19,3.91a52.45,52.45,0,0,0-.16,6.08,8.21,8.21,0,0,0,.3,1.64,25.52,25.52,0,0,0,1.14,3.16c.78,1.83,1.8,3.93,2.92,6.14.49,1,1,2,1.5,3,1,2,2.09,4.06,3.05,6.07q.75,1.53,1.4,3c.19.41.37.81.53,1.21a20.54,20.54,0,0,0-3.54.49c-9.2,2-20.43,9.79-28.09,15.46l-2.5,1.87c-3.8,2.86-6.27,4.78-6.42,4.38a4.73,4.73,0,0,1-.15-.66c-.13-.71-.32-1.9-.57-3.47-.31-1.9-.7-4.35-1.19-7.13-.19-1.1-.4-2.25-.62-3.45-.42-2.23-.89-4.59-1.41-7-.24-1.11-.5-2.24-.77-3.36-.54-2.3-1.14-4.59-1.79-6.79q-.48-1.65-1-3.23c-.43-1.3-.89-2.56-1.36-3.74a18,18,0,0,0-4.16,6.88l-.06.17c-4.38,13,1.93,31.88,2.34,34.25-3.6,1.46-4.3,4.55-5.51,5.33h0a1.12,1.12,0,0,1-.6.19c-1.68,0-16.81-4.44-16.81-33.84,0-26.06,16.85-50.51,28.58-57.85a15.87,15.87,0,0,1,4.21-1.95,73.75,73.75,0,0,1,9.44-2c12.5-1.65,16.23,2.62,26.38,5.22,12.34,3.16,34.54-8,37.49-8a5.84,5.84,0,0,1,1.54.2C252.26,188.58,254.44,190.78,254.52,194.85Z"/><path class="cls-13" d="M180.53,201.86c-7.73,0-9.43-4.6-9.75-7.43a15.87,15.87,0,0,1,4.21-1.95,73.75,73.75,0,0,1,9.44-2C186.23,195.65,187.07,201.86,180.53,201.86Z"/><path class="cls-14" d="M182.27,190.31a8.88,8.88,0,0,1-3.39,1.21c-3,.46-5.07,0-6.46-.86a5.87,5.87,0,0,1-2.17-2.33,11.79,11.79,0,0,0,.12-3.18,8.47,8.47,0,0,1-1,.15c-3.31.35-5.4-1.39-4.54-3.66.94-2.48,4.2-1,4.64-.15s-.1-2.1,1.37-7c.09-.3.18-.6.28-.91.88,0,7.59,1,12.17-1.84a15.26,15.26,0,0,1,1.56,3C187.07,180,187,187.32,182.27,190.31Z"/><path class="cls-15" d="M183,195.15c-1.69,4.06-6.81,3.77-8.66,2.44a4.14,4.14,0,0,1-1.43-2.66c-.3-1.44-.3-3.07-.52-4.27,1.4.85,3.45,1.32,6.46.86a8.88,8.88,0,0,0,3.39-1.21,10.9,10.9,0,0,0,.12,1.29C182.67,193.35,183.26,194.6,183,195.15Z"/><path class="cls-16" d="M254.52,194.85c-.08-4.08-2.25-6.27-4.68-6.9,0,0,3.42-5.75,5.23-6.23s.82,5.33.82,5.33,8.73-5.55,14-4S255.7,193,254.52,194.85Z"/><path class="cls-17" d="M170.23,288.76c1.18,1.7-.44,7.77-5,7.69s-6.07-5.47-5.59-10.52h0c1.22-.78,1.91-3.87,5.51-5.33a15.07,15.07,0,0,1,5,2.91C171.86,285.28,169,287.06,170.23,288.76Z"/><path class="cls-11" d="M232.61,368.9a11.18,11.18,0,0,1-1.87,1.49,8.93,8.93,0,0,1-5.51,1.43,12,12,0,0,1-8-4.24,5.14,5.14,0,0,1-.57-.9c-1.33-2.81,6.66-38.78,3.41-44.25-3.11,9.47-20.28,37.89-27.09,35.37l-.07,0a19.23,19.23,0,0,1-8.65-7.28,15.15,15.15,0,0,1-1.54-2.88c-.5-1.29-.61-2.37-.25-3,1.33-2.22,10.36-10.81,13.18-22.2s.74-18.35-8-24-12.28-11.25-11.74-20.32c.19.48,3.74-2.41,8.92-6.25,8.68-6.43,21.93-15.52,31.63-16C261.22,305.76,239.27,362.39,232.61,368.9Z"/><path class="cls-18" d="M188.9,371.85c1.39,9.26-2.76,18.86-6.21,19.06s-5.43-3.85-5.38-10.26-6.46-19-5.37-22.6,9.08-7.4,10.75-10.44c1.32,3.41,5.29,8.32,10.19,10.16C190.35,361.2,188.05,366.18,188.9,371.85Z"/><path class="cls-19" d="M230.75,370.39a63.76,63.76,0,0,0-2,8.77c-.69,5,.49,21.51-2.77,22s-6.12-1.68-8.28-8.88-6.42-16.47-6.61-18.35,3.94-3.65,6.09-6.35C219.27,370.23,225.2,373.93,230.75,370.39Z"/><line class="cls-20" x1="217.2" y1="367.58" x2="217.19" y2="367.58"/><path class="cls-21" d="M230.75,319.87c-1,8.38-8,31.62-7.73,39.72.22,6.66,1.62,9.21,2.21,12.24a12,12,0,0,1-8-4.24,5.14,5.14,0,0,1-.57-.9c-1.33-2.81,6.66-38.78,3.41-44.25,4-15.39,3.66-22.64-2.83-30.64s-4.72-13.17-4.72-13.17,0,4.44,8.44,11.25S232.22,308,230.75,319.87Z"/><path class="cls-21" d="M202.86,304.83c-.41,14.87-8.25,37.18-18.64,45.66a15.15,15.15,0,0,1-1.54-2.88c-.5-1.29-.61-2.37-.25-3,1.33-2.22,10.36-10.81,13.18-22.2s.74-18.35-8-24-12.28-11.25-11.74-20.32c.19.48,3.74-2.41,8.92-6.25a16.85,16.85,0,0,1,.6,3.88C185.55,282.91,203.3,288.71,202.86,304.83Z"/><path class="cls-13" d="M184.8,271.88c-5.18,3.84-8.74,6.73-8.92,6.25-.5-1.29-3.26-24.77-8.88-38.83,0,0,6.36,1.58,8.83,10C177.89,256.34,183.05,265,184.8,271.88Z"/><path class="cls-13" d="M230.77,209.5c-9.72,4-19.72,6.57-25.49,5.68A11.26,11.26,0,0,0,199.9,208C207,207.28,219.26,210.46,230.77,209.5Z"/><ellipse class="cls-11" cx="176.38" cy="179.68" rx="0.89" ry="1.15"/><ellipse class="cls-11" cx="182.48" cy="178.79" rx="0.89" ry="1.15" transform="translate(-17.83 20.23) rotate(-6.05)"/><path class="cls-22" d="M175,183.86s1,2.59,5.55,1.48"/><path class="cls-22" d="M222.25,379.81s9-1.13,8.86,1.09-7.43,1-8.42,3.26,7.35,0,7.55,1.48-7.05,3-7.05,3"/><path class="cls-22" d="M183.84,364.32s8,1.48,8.07,3.77-7.25-.81-8.73,1.7,8.73,1,8.73,3.77-6.07,1.11-8.14,2.07"/><path class="cls-13" d="M184.92,174.66c-5.07,2-11.36.54-14-.22.09-.3.18-.6.28-.91.88,0,7.59,1,12.17-1.84A15.26,15.26,0,0,1,184.92,174.66Z"/><path class="cls-13" d="M182.4,191.59a65.64,65.64,0,0,1-9.45,3.34c-.3-1.44-.3-3.07-.52-4.27,1.4.85,3.45,1.32,6.46.86a8.88,8.88,0,0,0,3.39-1.21A10.9,10.9,0,0,0,182.4,191.59Z"/><path class="cls-23" d="M162.73,246.24l.12-.06-.06.17Z"/><g class="cls-13"><path class="cls-2" d="M205.92,221.77c0,1.29-.11,2.61-.19,3.91l-36.37,20.6q-.48-1.65-1-3.23Z"/><path class="cls-2" d="M207,236.56l-35.08,19.87c-.24-1.11-.5-2.24-.77-3.36l34.72-19.67A25.52,25.52,0,0,0,207,236.56Z"/><path class="cls-2" d="M211.44,245.64,174,266.87c-.19-1.1-.4-2.25-.62-3.45l36.59-20.72C210.42,243.66,210.93,244.65,211.44,245.64Z"/><path class="cls-2" d="M215.9,254.72l-3,1.7c-9.2,2-20.43,9.79-28.09,15.46l-2.5,1.87-6.57,3.72c-.13-.71-.32-1.9-.57-3.47l39.34-22.28Q215.24,253.24,215.9,254.72Z"/></g><path class="cls-24" d="M355,189.71c-.3,3.14-.87,9.38-1.26,15.14-.18,2.71-.33,5.31-.38,7.42a52.11,52.11,0,0,1-29.64-9c-4-2.64-6.37-4.82-6.83-4.8-1.34.07-19.14-3.14-21.65-4.67s-3.54-4.51,1.68-4.76,12.91,1.52,13.16,1.57c-.11-.18-2.72-4.4-.7-4.16s3,2.8,12.15,6.13C328.24,195,341,193.1,355,189.71Z"/><path class="cls-11" d="M427,209.61a74.89,74.89,0,0,1,.76,16c-.11,2-.27,4.08-.49,6.12a28.34,28.34,0,0,1-17.64,5.84c0-.81,0-1.62,0-2.43a34,34,0,0,0-3-13.32c-6.73,3.83-15.07,39.24-19.19,42.84a.93.93,0,0,1-.69.29h0c-4-1.37-16.63-10-23.4-19.19-.57-.78-1.11-1.57-1.58-2.35-.19-.31-.38-.62-.55-.94-5.81-10.37-15.34-8.13-15.53-9.3s9.25-8.32,16.86-21.91a51.69,51.69,0,0,1-8.64,1h-.45c.05-2.11.2-4.71.38-7.42.39-5.76,1-12,1.26-15.14l.08,0c5.25-1.27,10.67-2.76,16-4.32,19.75-5.74,21.94-6.11,21.94-6.11S422.4,182.51,427,209.61Z"/><path class="cls-25" d="M399.59,171.56c-.65,1.46.8,9.17.76,10.68-2.19,5.25-11.43,4.79-11.34,2.22a51.5,51.5,0,0,0-.14-5.31s-6.83,2.21-10.4-4.25S379.54,159,379.54,159c3.6,1.89,10,1.24,11,1.59s1.7,3.89,2.36,4.2.55-2.82,3-1.91,1,3.46,1,4.36S397.43,169.89,399.59,171.56Z"/><path class="cls-11" d="M399.59,171.56c-2.16-1.66-2.67-3.38-2.67-4.27s1.5-3.46-1-4.36-2.38,2.22-3,1.91-1.33-3.86-2.36-4.2-7.4.3-11-1.59c-7.95-1.28-17.19-9.33-11.57-15.61s14.49-4.4,19.42,1.22,7,7.89,9.75,8,7.2-.92,8.69,2.58S402.87,172.35,399.59,171.56Z"/><path class="cls-26" d="M409.61,237.61c-.2,16.22-5.27,28-7.19,35.57,0,0-3.48.81-4.8,2.79s.67,3.39.45,4.43-2.53,4.83-.44,6.88,12.53,1.33,14.18-1.65c1.31-2.36,1.67-7.34,1.76-9.29,2.34-4.86,11.33-22.77,13.68-44.56A28.34,28.34,0,0,1,409.61,237.61Z"/><path class="cls-21" d="M373.51,195.77c-2.88,1.89-11,15.53-11,15.53a51.69,51.69,0,0,1-8.64,1h-.45a52.11,52.11,0,0,1-29.64-9c4.68,1,12.51,3.45,17.19,2.35,4.35-1,8.59-.66,12.83-.73a34.74,34.74,0,0,0,5.29-.42C365.09,203.41,366.74,197.12,373.51,195.77Z"/><path class="cls-21" d="M406.59,221.86c-7.12,4.05-16.06,43.54-19.88,43.14h0c1.37-6.12,1.17-13.64,1.19-19.2,0-7,8-9.65,7.73-18.22s6.09-10.14,5.37-16.82C403.59,213.91,406.59,221.86,406.59,221.86Z"/><path class="cls-27" d="M363.29,245.79c-38.85,29.38-59.54,118.23-60,119.14a3.37,3.37,0,0,1-1.1.8,27.68,27.68,0,0,1-8.26,2.85,13.32,13.32,0,0,1-6.73-.35,7,7,0,0,1-2.9-2c-1.78-42.37,10.32-73.48,24.24-94.9,17.15-26.41,37-38.12,37-38.12.2,1.17,9.73-1.07,15.53,9.3.18.31.36.63.55.94C362.18,244.23,362.71,245,363.29,245.79Z"/><path class="cls-21" d="M363.29,245.79c-38.85,29.38-59.54,118.23-60,119.14-.25.54-4.65,2.87-9.36,3.66.57-9.48,6.46-33.83,5.27-49.18C297.9,302,303.82,292,303.82,292l4.76-20.68c17.15-26.41,37-38.12,37-38.12.2,1.17,9.73-1.07,15.53,9.3.18.31.36.63.55.94C362.18,244.23,362.71,245,363.29,245.79Z"/><path class="cls-28" d="M387.4,264.71a16,16,0,0,1-6.49,10.87,16.65,16.65,0,0,1-5.8,2.46c-14.84,3.38-22.19-8.13-36.08.63s-4.19,44.14-5.9,48.23a3.14,3.14,0,0,1-.26.49c-1.77,2.77-9,6.63-14.71,7.64-2.84.5-5.33.3-6.65-1.07-4.13-4.31-23.2-74.53-2.19-87.59,16.21-10.07,40.09-5.9,50.17-3.47l2.22.56c6.15,10,20.63,20.05,25,21.54h0A.93.93,0,0,0,387.4,264.71Z"/><path class="cls-21" d="M387.4,264.71a16,16,0,0,1-6.49,10.87c-7.11-2.64-16.22-11.21-17.79-20.55a49.09,49.09,0,0,0-3.63-12.14l2.22.56c6.15,10,20.63,20.05,25,21.54h0A.93.93,0,0,0,387.4,264.71Z"/><path class="cls-11" d="M304.89,383.9c-8.84,1.87-28.69,11.9-34,12.43s-6.66-3.45-4.77-7.37c1.63-3.39,16.87-16.21,21.13-20.71a13.32,13.32,0,0,0,6.73.35,27.68,27.68,0,0,0,8.26-2.85C305.48,372.8,311.81,382.43,304.89,383.9Z"/><path class="cls-11" d="M342.91,342.42c-2.32,2.72-19.06,22.21-22.78,25.09s-7.86,2.76-7.75-4.11c.1-6,5.38-23,5.77-28.38,5.75-1,12.94-4.86,14.71-7.64C335.93,330.56,344.83,340.16,342.91,342.42Z"/><path class="cls-29" d="M314.88,346.26s3.75-2.21,6.1.1-7.68,2-7.64,4.52,6.29-1.44,6.66,1.65-6,2.22-7.76,3"/><path class="cls-30" d="M272.75,378.94s3.53,6.11,5.62,4.85-4.51-6.14-1.26-7.44,4.06,4.49,6.46,3.87-2.14-8.53-2.14-8.53"/><ellipse class="cls-11" cx="383.36" cy="166.39" rx="1.23" ry="0.89" transform="translate(181.59 532.37) rotate(-84.6)"/><path class="cls-2" d="M381.51,171.46l8.07-2s-.24,3.59-3.45,4.48S381.51,171.46,381.51,171.46Z"/><circle class="cls-31" cx="433.45" cy="142.97" r="12.36"/><path class="cls-2" d="M440.19,145.39a6.73,6.73,0,1,1-13.47,0Z"/><path class="cls-2" d="M431,139.2a1.18,1.18,0,0,1,0,1.66l-.31.31-1.53,1.53a.2.2,0,0,1-.28,0l-1.58-1.59-.21-.22a1.18,1.18,0,0,1,0-1.66h0a1.18,1.18,0,0,1,1.66,0l.27.28.31-.31a1.18,1.18,0,0,1,1.66,0Z"/><path class="cls-2" d="M439.77,139.2a1.18,1.18,0,0,1,0,1.66l-.31.31-1.53,1.53a.2.2,0,0,1-.28,0l-1.58-1.59-.21-.22a1.18,1.18,0,0,1,0-1.66h0a1.18,1.18,0,0,1,1.66,0l.27.28.31-.31a1.18,1.18,0,0,1,1.66,0Z"/><circle class="cls-32" cx="116.8" cy="227.71" r="12.36" transform="translate(-20.49 11.74) rotate(-5.29)"/><path class="cls-33" d="M123.73,229.49a6.73,6.73,0,1,1-13.41,1.24Z"/><path class="cls-34" d="M114,224.17a1.18,1.18,0,0,1,.15,1.66l-.28.34-1.38,1.66a.2.2,0,0,1-.27,0l-1.72-1.43-.23-.2a1.18,1.18,0,0,1-.15-1.66h0a1.18,1.18,0,0,1,1.66-.15l.29.25.28-.34a1.18,1.18,0,0,1,1.66-.15Z"/><path class="cls-34" d="M122.74,223.37a1.18,1.18,0,0,1,.15,1.66l-.28.34L121.24,227a.2.2,0,0,1-.27,0l-1.72-1.43-.23-.2a1.18,1.18,0,0,1-.15-1.66h0a1.18,1.18,0,0,1,1.66-.15l.29.25.28-.34a1.18,1.18,0,0,1,1.66-.15Z"/><circle class="cls-35" cx="120.15" cy="172.09" r="12.36" transform="translate(-26.7 22.14) rotate(-9.48)"/><path class="cls-36" d="M126.92,173.65A6.73,6.73,0,0,1,114.29,176"/><circle class="cls-2" cx="116.8" cy="171.35" r="1.29" transform="translate(-26.63 21.58) rotate(-9.48)"/><circle class="cls-2" cx="123.08" cy="170.3" r="1.29" transform="translate(-26.36 22.59) rotate(-9.48)"/><circle class="cls-37" cx="440.19" cy="188.27" r="12.36" transform="translate(166.1 580.81) rotate(-78.23)"/><path class="cls-22" d="M445.94,192.17a6.73,6.73,0,0,1-12.63-2.38"/><circle class="cls-11" cx="437.34" cy="186.36" r="1.29" transform="translate(165.69 576.49) rotate(-78.23)"/><circle class="cls-11" cx="443.57" cy="187.66" r="1.29" transform="translate(169.38 583.63) rotate(-78.23)"/><path class="cls-34" d="M321.2,173.68a2.32,2.32,0,0,1-1.53,2.91l-.82.26-4.06,1.26a.39.39,0,0,1-.48-.25L313,173.63l-.16-.58a2.32,2.32,0,0,1,1.53-2.91h0a2.32,2.32,0,0,1,2.9,1.53l.21.73.82-.26a2.32,2.32,0,0,1,2.9,1.53Z"/><path class="cls-34" d="M254.44,158.45a2.32,2.32,0,0,1,1.88,2.69l-.15.85-.74,4.19a.38.38,0,0,1-.45.31l-4.35-.77-.59-.12a2.32,2.32,0,0,1-1.88-2.69h0a2.32,2.32,0,0,1,2.69-1.88l.75.15.15-.85a2.32,2.32,0,0,1,2.69-1.88Z"/><path class="cls-34" d="M296.21,152.59a8.54,8.54,0,0,1,3.18,11.66L297.83,167l-7.77,13.6a1.42,1.42,0,0,1-1.93.53L274,173l-1.89-1.14a8.54,8.54,0,0,1-3.17-11.66h0a8.54,8.54,0,0,1,11.66-3.17l2.4,1.44,1.56-2.75a8.54,8.54,0,0,1,11.65-3.18Z"/></g></g></svg>