<svg id="圖層_1" data-name="圖層 1" xmlns="http://www.w3.org/2000/svg" viewBox="0 0 1920 1080"><defs><style>.cls-1{fill:#ffc535;}.cls-1,.cls-2,.cls-3,.cls-4{fill-rule:evenodd;}.cls-2{fill:#f4efdf;}.cls-3{fill:#eb7513;}.cls-4{fill:#76afaf;}.cls-5{fill:#601c8a;}.cls-6{fill:#c4196e;opacity:0.88;}</style></defs><path class="cls-1" d="M1884.35,618.35a25.82,25.82,0,1,1,25.82,25.81,25.81,25.81,0,0,1-25.82-25.81Z"/><path class="cls-2" d="M973.29,529.77A22.29,22.29,0,1,1,995.58,552a22.26,22.26,0,0,1-22.29-22.23Z"/><path class="cls-3" d="M995.63,937a43.16,43.16,0,1,1,43.16,43,43.1,43.1,0,0,1-43.16-43Z"/><path class="cls-1" d="M995.32,814.59a20.27,20.27,0,1,0-20.26,20.12,20.19,20.19,0,0,0,20.26-20.12Z"/><path class="cls-2" d="M1406.74,936.83a26,26,0,1,1,26,25.88,26,26,0,0,1-26-25.88Z"/><path class="cls-4" d="M1907.07,350.73a39.39,39.39,0,1,0-39.39,39.55,39.48,39.48,0,0,0,39.39-39.55Z"/><path class="cls-4" d="M1769.25,764.26A20.66,20.66,0,1,0,1748.59,785a20.7,20.7,0,0,0,20.66-20.74Z"/><path class="cls-3" d="M1161.86,224.17a39.55,39.55,0,1,1,39.54,39.32,39.43,39.43,0,0,1-39.54-39.32Z"/><path class="cls-3" d="M1730,504.42A24.5,24.5,0,1,1,1754.5,529a24.55,24.55,0,0,1-24.5-24.58Z"/><path class="cls-2" d="M1039,903.71a27,27,0,1,1,27,26.95,26.95,26.95,0,0,1-27-26.95Z"/><ellipse class="cls-5" cx="1801.19" cy="816.72" rx="125.96" ry="125.94" transform="translate(-173.9 715.11) rotate(-21.45)"/><circle class="cls-6" cx="631.42" cy="874.21" r="98.21"/></svg>