<svg xmlns="http://www.w3.org/2000/svg" viewBox="0 0 221.57 222.49"><defs><style>.cls-1{fill:#74aaaa;fill-rule:evenodd;}.cls-2{fill:#daeaf8;}.cls-3{fill:#b5d6f1;}.cls-4{fill:#8dc2e9;}.cls-5{fill:#6fbd65;}.cls-6{fill:#4cb246;}.cls-7{fill:#c7755e;}.cls-8{fill:#ba674d;}.cls-9{fill:#ed7865;}.cls-10{fill:#e0605b;}.cls-11{fill:#d24852;}.cls-12{fill:#fae19e;}.cls-13{fill:#ebc97d;}.cls-14{fill:#f2bc1a;}.cls-15{fill:#e9a71b;}.cls-16{fill:#040000;}</style></defs><title>資產 6</title><g id="圖層_2" data-name="圖層 2"><g id="圖層_1-2" data-name="圖層 1"><path class="cls-1" d="M221.57,111.24C221.57,49.81,172,0,110.78,0S0,49.81,0,111.24,49.6,222.49,110.78,222.49s110.78-49.81,110.78-111.24Z"/><circle class="cls-2" cx="110.73" cy="111.11" r="75.89"/><path class="cls-3" d="M53.42,111.11A75.9,75.9,0,0,1,120,35.79,75.89,75.89,0,1,0,110.73,187a76.61,76.61,0,0,0,9.29-.57,75.9,75.9,0,0,1-66.6-75.33Z"/><circle class="cls-3" cx="110.73" cy="111.11" r="57.94"/><path class="cls-4" d="M71.37,111.11A58,58,0,0,1,120,53.92a57.94,57.94,0,1,0,0,114.39A58,58,0,0,1,71.37,111.11Z"/><path class="cls-5" d="M153.8,98.5A7.91,7.91,0,0,0,151,85.69a2.31,2.31,0,0,1-1.56-2.33,7.89,7.89,0,0,0-9.75-8.16,2.4,2.4,0,0,1-2.89-1.41,7.9,7.9,0,0,0-13.05-2.28,2.27,2.27,0,0,1-2.52.6,7.82,7.82,0,0,0-10.62,7l-.06.6A14.61,14.61,0,0,1,126,88a17.73,17.73,0,0,0,4.42,5.82,26.67,26.67,0,0,1,8.67,16,11.17,11.17,0,0,1,14,3.18,7.82,7.82,0,0,0,.69-11.28,2.3,2.3,0,0,1,0-3.16Z"/><path class="cls-6" d="M130.47,93.81a27,27,0,0,1,2.44,2.46,2.5,2.5,0,0,0-.2-1.53,7.89,7.89,0,0,1,6.24-11.08,2.31,2.31,0,0,0,2-2A7.61,7.61,0,0,1,145.51,76a7.71,7.71,0,0,0-5.8-.82,2.4,2.4,0,0,1-2.89-1.41,7.9,7.9,0,0,0-13.05-2.28,2.27,2.27,0,0,1-2.52.6,7.82,7.82,0,0,0-10.62,7l-.06.6A14.61,14.61,0,0,1,126,88,17.73,17.73,0,0,0,130.47,93.81Z"/><path class="cls-7" d="M66.38,94.79a4,4,0,0,1,4-4h9.67V79.26a4,4,0,0,0-4-4H55.49a4,4,0,0,0-4,4V99.81a4,4,0,0,0,4,4H66.38Z"/><path class="cls-8" d="M60.05,99.81V79.26a4,4,0,0,1,4-4H55.49a4,4,0,0,0-4,4V99.81a4,4,0,0,0,4,4h8.59A4,4,0,0,1,60.05,99.81Z"/><path class="cls-9" d="M139.2,109.23a26.88,26.88,0,0,1-.84,12.47,11.29,11.29,0,0,1,12,7.65l.06.19.17-.11a11.61,11.61,0,0,0-11.37-20.2Z"/><path class="cls-10" d="M145.57,119.41a11.31,11.31,0,0,1,5-9.41,11.55,11.55,0,0,0-11.38-.77,26.88,26.88,0,0,1-.84,12.47,11.49,11.49,0,0,1,8.16,2.28A11.27,11.27,0,0,1,145.57,119.41Z"/><path class="cls-10" d="M138.46,121.38a26.92,26.92,0,0,1-5.85,10.34,11.38,11.38,0,0,1,9.88,11.22c0,.34,0,.68-.05,1l0,.22.21-.06a11.61,11.61,0,0,0-4.17-22.77Z"/><path class="cls-11" d="M148,124.91a11.62,11.62,0,0,0-9.54-3.53,26.92,26.92,0,0,1-5.85,10.34,11.65,11.65,0,0,1,6.51,3.2A11.33,11.33,0,0,1,148,124.91Z"/><path class="cls-9" d="M132.85,131.45c-2.39,2.69-4.79,4-6.67,8.07a14.88,14.88,0,0,1-6.15,6.67,11.61,11.61,0,1,0,12.82-14.74Z"/><path class="cls-10" d="M129.38,143a11.32,11.32,0,0,1,7-10.45,11.73,11.73,0,0,0-3.49-1.1c-2.39,2.69-4.79,4-6.67,8.07a14.88,14.88,0,0,1-6.15,6.67,11.69,11.69,0,0,0,11.15,8.37,11.54,11.54,0,0,0,5-1.15,11.32,11.32,0,0,1-6.85-10.4Z"/><path class="cls-7" d="M86.2,113.72a25.89,25.89,0,0,1,8.19-19.31,4.32,4.32,0,0,0-4-4.26H69.8a4,4,0,0,0-4,4v20.55a4,4,0,0,0,4,4H86.68a27,27,0,0,1-.48-5.06Z"/><path class="cls-8" d="M74.36,114.74V94.18a4,4,0,0,1,4-4H69.8a4,4,0,0,0-4,4v20.55a4,4,0,0,0,4,4H78.4A4,4,0,0,1,74.36,114.74Z"/><path class="cls-12" d="M130.67,93.58a17.48,17.48,0,0,1-4.35-5.72,14.87,14.87,0,0,0-27,0A17.48,17.48,0,0,1,95,93.58a26.9,26.9,0,0,0,0,40.27,17.48,17.48,0,0,1,4.35,5.72,14.87,14.87,0,0,0,27,0,17.48,17.48,0,0,1,4.35-5.72,26.9,26.9,0,0,0,0-40.27Z"/><path class="cls-13" d="M113.81,139.57a17.48,17.48,0,0,0-4.35-5.72,26.9,26.9,0,0,1,0-40.27,17.48,17.48,0,0,0,4.35-5.72,14.93,14.93,0,0,1,6.26-6.77A14.87,14.87,0,0,0,99.3,87.86,17.48,17.48,0,0,1,95,93.58a26.9,26.9,0,0,0,0,40.27,17.48,17.48,0,0,1,4.35,5.72,14.87,14.87,0,0,0,20.76,6.77A14.93,14.93,0,0,1,113.81,139.57Z"/><circle class="cls-14" cx="112.81" cy="113.72" r="13.38"/><path class="cls-15" d="M112.81,113.72a13.37,13.37,0,0,1,6.69-11.59,13.38,13.38,0,1,0,0,23.17A13.37,13.37,0,0,1,112.81,113.72Z"/><path class="cls-16" d="M110.78,189.39a78.18,78.18,0,1,0-55.28-22.9A78.13,78.13,0,0,0,110.78,189.39Zm0-151.77a73.6,73.6,0,1,1-73.6,73.6A73.55,73.55,0,0,1,110.78,37.62Z"/><path class="cls-16" d="M106.61,128.19a2.29,2.29,0,1,0,1.83-4.2,11.09,11.09,0,1,1,8.86,0,2.29,2.29,0,0,0,1.83,4.2,15.67,15.67,0,1,0-12.52,0Z"/><path class="cls-16" d="M110.78,171.44a60.22,60.22,0,0,0,60-54.67,2.29,2.29,0,1,0-4.56-.42,55.64,55.64,0,0,1-111-5.14c0-1.65.07-3.32.22-5h8.17v8.6a6.33,6.33,0,0,0,6.32,6.32H84.61a29.25,29.25,0,0,0,8.89,14.5,15.15,15.15,0,0,1,3.78,5,17.17,17.17,0,0,0,21.79,8.82,13.76,13.76,0,0,0,25.64-3.62,13.75,13.75,0,0,0,8.45-15.52,13.73,13.73,0,0,0,2.93-17.54,9.78,9.78,0,0,0-.78-12.35.32.32,0,0,1,0-.4,9.89,9.89,0,0,0-3.49-16.08c-.17-.06-.28-.2-.27-.29a9.87,9.87,0,0,0-12.23-10.25.44.44,0,0,1-.54-.23,9.88,9.88,0,0,0-16.38-2.86.29.29,0,0,1-.31.07,9.82,9.82,0,0,0-13.13,7.12A17.22,17.22,0,0,0,97.28,87a14.15,14.15,0,0,1-2.06,3.2A6.32,6.32,0,0,0,90.42,88h-8v-8.6A6.33,6.33,0,0,0,76.1,73h-5.8a55.64,55.64,0,0,1,95.88,33,2.29,2.29,0,1,0,4.56-.42A60.22,60.22,0,0,0,64.22,73H55.55a6.33,6.33,0,0,0-6.32,6.32V99.92A6.3,6.3,0,0,0,51,104.26a60.92,60.92,0,0,0-.4,7,60.29,60.29,0,0,0,60.22,60.22Zm20.46-19.23a9.25,9.25,0,0,1-8.15-5,18.09,18.09,0,0,0,5.7-7.28,15.49,15.49,0,0,1,3.45-4.3c.49-.44,1.07-1,1.51-1.44a9.23,9.23,0,0,1,6.61,9.67h0A9.18,9.18,0,0,1,131.24,152.21Zm13.54-11.56a13.94,13.94,0,0,0-7.94-10.17,30.18,30.18,0,0,0,3.45-6.6,9.17,9.17,0,0,1,4.49,16.76Zm6.53-15a13.77,13.77,0,0,0-9.77-6.29,29.73,29.73,0,0,0,.4-8.47,9.17,9.17,0,0,1,9.37,14.76Zm-31-51.07a4.87,4.87,0,0,0,5.42-1.3,5.3,5.3,0,0,1,8.69,1.52,5,5,0,0,0,6,3,5.29,5.29,0,0,1,6.51,5.42,4.91,4.91,0,0,0,3.26,5A5.31,5.31,0,0,1,152,96.77a4.85,4.85,0,0,0-.07,6.76,5.22,5.22,0,0,1,1,5.58,13.76,13.76,0,0,0-11.79-2.69A29.42,29.42,0,0,0,132.25,92a15.26,15.26,0,0,1-3.78-5,17.23,17.23,0,0,0-14.58-10,5.26,5.26,0,0,1,6.47-2.42ZM101.44,88.92a12.6,12.6,0,0,1,22.86,0,19.71,19.71,0,0,0,4.91,6.48,24.7,24.7,0,0,1,7.86,13.86v0a24.62,24.62,0,0,1-7.87,23,19.69,19.69,0,0,0-4.91,6.48,12.6,12.6,0,0,1-22.86,0,19.69,19.69,0,0,0-4.91-6.48,24.61,24.61,0,0,1,0-36.84,19.69,19.69,0,0,0,4.91-6.48Zm-9.5,4.54a29.25,29.25,0,0,0-8.28,20.36c0,.88.05,2,.13,2.77H69.86a1.75,1.75,0,0,1-1.74-1.74V94.29a1.75,1.75,0,0,1,1.74-1.74H90.42A1.75,1.75,0,0,1,91.94,93.46ZM53.81,79.36a1.75,1.75,0,0,1,1.74-1.74H76.1a1.75,1.75,0,0,1,1.74,1.74V88h-8a6.33,6.33,0,0,0-6.32,6.32v7.37h-8l-.23,0h0a1.73,1.73,0,0,1-.67-.25l-.07,0a1.74,1.74,0,0,1-.75-1.43V79.36Z"/></g></g></svg>