<svg xmlns="http://www.w3.org/2000/svg" viewBox="0 0 349.47 348.36"><defs><style>.cls-1{fill:#f3edde;fill-rule:evenodd;}.cls-2{fill:#ddf0f7;}.cls-3{fill:#c6e7f6;}.cls-4{fill:#ebebeb;}.cls-5{fill:#c16b37;}.cls-6{fill:#9a5427;}.cls-7{fill:#f4b045;}.cls-8{fill:#29a97b;}.cls-9{fill:#e87878;}.cls-10{fill:#cecfcf;}.cls-11{fill:#a85c2f;}.cls-12{fill:#040000;}</style></defs><title>資產 4</title><g id="圖層_2" data-name="圖層 2"><g id="圖層_1-2" data-name="圖層 1"><path class="cls-1" d="M0,174.18C0,78,78.23,0,174.73,0S349.47,78,349.47,174.18,271.24,348.36,174.73,348.36,0,270.38,0,174.18Z"/><circle class="cls-2" cx="174.74" cy="174.18" r="133.04"/><path class="cls-3" d="M226.41,51.55A133.07,133.07,0,0,1,107.88,289.23,133.07,133.07,0,1,0,226.41,51.55Z"/><path class="cls-4" d="M268.43,186.52c.53-4.08,2.94-8.11,2.94-12.33s-2.41-8.25-2.94-12.33.73-8.69-.34-12.68-4.46-7.32-6-11.14-1.55-8.56-3.63-12.15-6.2-5.9-8.73-9.19-3.69-7.86-6.64-10.8-7.49-4.1-10.8-6.64-5.58-6.64-9.19-8.73-8.28-2-12.15-3.63-7.09-5-11.14-6-8.5.21-12.68-.34-8.11-2.94-12.33-2.94S166.48,80,162.4,80.49a19.28,19.28,0,0,1-2.66.14V267.74a19.28,19.28,0,0,1,2.66.14c4.08.53,8.11,2.94,12.33,2.94s8.25-2.41,12.33-2.94,8.69.73,12.68-.34,7.32-4.46,11.14-6,8.56-1.55,12.15-3.63,5.9-6.2,9.19-8.73,7.86-3.69,10.8-6.64,4.1-7.49,6.64-10.8,6.64-5.58,8.73-9.19,2-8.28,3.63-12.15,5-7.09,6-11.14-.21-8.5.34-12.68Z"/><path class="cls-5" d="M169.47,89.14V89a9.12,9.12,0,0,0-10.6-9.08,95.57,95.57,0,0,0,.9,188.63,9.1,9.1,0,0,0,10.27-11q-.27-1.18-.5-2.44c-3.77-20.31,7.43-21.34,7.43-42s-7.5-20.66-7.5-41.31,7.5-20.66,7.5-41.31-7.5-20.66-7.5-41.31Z"/><path class="cls-6" d="M143.72,136.88h-15.9a3.21,3.21,0,0,1-3.21-3.21v-15.9a3.21,3.21,0,0,1,3.21-3.21h15.9a3.21,3.21,0,0,1,3.21,3.21v15.9a3.21,3.21,0,0,1-3.21,3.21Z"/><path class="cls-7" d="M132.72,176.57h15.9a3.21,3.21,0,0,1,3.21,3.21v15.9a3.21,3.21,0,0,1-3.21,3.21h-15.9a3.21,3.21,0,0,1-3.21-3.21v-15.9A3.21,3.21,0,0,1,132.72,176.57Z"/><circle class="cls-8" cx="109.34" cy="161.57" r="8.03"/><circle class="cls-9" cx="124.52" cy="225.77" r="8.03"/><path class="cls-10" d="M268.43,186.52c.53-4.08,2.94-8.11,2.94-12.33s-2.41-8.25-2.94-12.33.73-8.69-.34-12.68-4.46-7.32-6-11.14-1.55-8.56-3.63-12.15-6.2-5.9-8.73-9.19-3.69-7.86-6.64-10.8-7.49-4.1-10.8-6.64-5.58-6.64-9.19-8.73-8.28-2-12.15-3.63-7.09-5-11.14-6-8.5.21-12.68-.34-8.11-2.94-12.33-2.94c-2.85,0-5.6,1.09-8.35,2,7.71,2.46,11.29-.13,16.66,1.31,4.06,1.09,7.32,4.46,11.14,6s8.56,1.55,12.15,3.63,5.9,6.2,9.19,8.73,7.86,3.69,10.8,6.64,4.1,7.49,6.64,10.8,6.64,5.58,8.73,9.19,2,8.28,3.63,12.15,5,7.09,6,11.14-.21,8.5.34,12.68,2.94,8.11,2.94,12.33-2.41,8.25-2.94,12.33.73,8.69-.34,12.68-4.46,7.32-6,11.14-1.55,8.56-3.63,12.15-6.2,5.9-8.73,9.19-3.69,7.86-6.64,10.8-7.49,4.1-10.8,6.64-5.58,6.64-9.19,8.73-8.28,2-12.15,3.63-7.09,5-11.14,6c-5.35,1.43-9-1.14-16.66,1.31,2.74.88,5.5,2,8.35,2,4.23,0,8.25-2.41,12.33-2.94s8.69.73,12.68-.34,7.32-4.46,11.14-6,8.56-1.55,12.15-3.63,5.9-6.2,9.19-8.73,7.86-3.69,10.8-6.64,4.1-7.49,6.64-10.8,6.64-5.58,8.73-9.19,2-8.28,3.63-12.15,5-7.09,6-11.14-.21-8.5.34-12.68Z"/><path class="cls-11" d="M169.47,171.77c0-20.66,7.5-20.66,7.5-41.31s-7.5-20.66-7.5-41.31V89a9.12,9.12,0,0,0-10.6-9.08q-2.15.36-4.26.82c1.42,14.18,7.18,16.42,7.18,34.52,0,20.66-7.5,20.66-7.5,41.31s7.5,20.66,7.5,41.31-11.2,21.69-7.43,42q.23,1.27.5,2.44a9.1,9.1,0,0,1-10.27,11A95.17,95.17,0,0,1,100,233.7a95.61,95.61,0,0,0,59.74,34.87,9.1,9.1,0,0,0,10.27-11q-.27-1.18-.5-2.44c-3.77-20.31,7.43-21.34,7.43-42s-7.5-20.66-7.5-41.31Z"/><ellipse class="cls-10" cx="218.46" cy="211.11" rx="6.96" ry="8.57"/><ellipse class="cls-10" cx="233.14" cy="182.74" rx="6.96" ry="8.57"/><ellipse class="cls-10" cx="202.31" cy="183.17" rx="6.96" ry="8.57"/><ellipse class="cls-10" cx="196.24" cy="237.38" rx="6.96" ry="8.57"/><path class="cls-12" d="M271.65,77.27a136.17,136.17,0,0,0-96.92-40.14h0A136.58,136.58,0,0,0,81.29,73.91a4,4,0,1,0,5.48,5.87A129,129,0,1,1,74.38,93.07,4,4,0,0,0,68.14,88,137.06,137.06,0,1,0,271.65,77.27Z"/><path class="cls-12" d="M143.72,110.54h-15.9a7.24,7.24,0,0,0-7.23,7.23v15.9a7.24,7.24,0,0,0,7.23,7.23h15.9a7.24,7.24,0,0,0,7.23-7.23v-15.9A7.24,7.24,0,0,0,143.72,110.54Zm-.8,22.32H128.63V118.58h14.29Z"/><path class="cls-12" d="M132.72,172.55a7.24,7.24,0,0,0-7.23,7.23v15.9a7.24,7.24,0,0,0,7.23,7.23h15.9a7.24,7.24,0,0,0,7.23-7.23v-15.9a7.24,7.24,0,0,0-7.23-7.23Zm15.1,22.32H133.53V180.58h14.29Z"/><path class="cls-12" d="M109.34,149.52a12,12,0,1,0,12,12A12.06,12.06,0,0,0,109.34,149.52Zm0,16.06a4,4,0,1,1,4-4A4,4,0,0,1,109.34,165.59Z"/><path class="cls-12" d="M124.52,237.82a12,12,0,1,0-12-12A12.06,12.06,0,0,0,124.52,237.82Zm0-16.06a4,4,0,1,1-4,4A4,4,0,0,1,124.52,221.76Z"/><path class="cls-12" d="M218.46,198.52c-6.05,0-11,5.65-11,12.59s4.92,12.59,11,12.59,11-5.65,11-12.59S224.51,198.52,218.46,198.52Zm0,17.15c-1.39,0-2.94-1.87-2.94-4.56s1.55-4.56,2.94-4.56,2.94,1.87,2.94,4.56S219.85,215.66,218.46,215.66Z"/><path class="cls-12" d="M233.14,170.15c-6.05,0-11,5.65-11,12.59s4.92,12.59,11,12.59,11-5.65,11-12.59S239.19,170.15,233.14,170.15Zm0,17.15c-1.39,0-2.94-1.87-2.94-4.56s1.55-4.56,2.94-4.56,2.94,1.87,2.94,4.56S234.54,187.3,233.14,187.3Z"/><path class="cls-12" d="M202.31,195.76c6.05,0,11-5.65,11-12.59s-4.92-12.59-11-12.59-11,5.65-11,12.59S196.26,195.76,202.31,195.76Zm0-17.15c1.39,0,2.94,1.87,2.94,4.56s-1.55,4.56-2.94,4.56-2.94-1.87-2.94-4.56S200.92,178.62,202.31,178.62Z"/><path class="cls-12" d="M196.24,224.79c-6.05,0-11,5.65-11,12.59s4.92,12.59,11,12.59,11-5.65,11-12.59S202.29,224.79,196.24,224.79Zm0,17.15c-1.39,0-2.94-1.87-2.94-4.56s1.55-4.56,2.94-4.56,2.94,1.87,2.94,4.56S197.63,241.94,196.24,241.94Z"/><path class="cls-12" d="M268.14,140.59c-2.45-3.71-2.71-4.33-3.64-8.76a26,26,0,0,0-2.62-8c-2.5-4.31-6.83-6.78-9-9.63s-3.47-7.68-7-11.19-8.33-4.79-11.19-7-5.32-6.53-9.63-9a26,26,0,0,0-8-2.62,26.74,26.74,0,0,1-4.66-1.25c-3.3-1.37-6.82-4.93-11.65-6.22s-9.56,0-13.2-.44A26.12,26.12,0,0,1,183,75.27c-10.41-3.46-12-1.05-19.54.9a13,13,0,0,0-5.3-.2,99.55,99.55,0,0,0-43.68,177.47,4,4,0,0,0,4.86-6.39A91.51,91.51,0,0,1,159.53,83.9a5.1,5.1,0,0,1,5.92,5.24,55.81,55.81,0,0,0,4,22,48.35,48.35,0,0,1,3.51,19.29,48.36,48.36,0,0,1-3.51,19.29,55.81,55.81,0,0,0-4,22,55.81,55.81,0,0,0,4,22,48.35,48.35,0,0,1,3.51,19.29c0,1.08,0,2.09-.09,3.05-1.07,17.09-11.94,19.32-6.74,42.28a5.08,5.08,0,0,1-5.73,6.19,90.8,90.8,0,0,1-25.76-8.14,4,4,0,1,0-3.53,7.21c7.36,3.6,25.73,10.37,33,8.68,8.18,2.37,9.59,3.81,18.89.72,4.19-1.39,4.85-1.49,9.41-1.22,7.28.43,9.69-.19,15.89-4.28,3.71-2.45,4.33-2.71,8.76-3.64,7.17-1.49,9.32-2.72,14.22-8.25,3-3.35,3.51-3.77,7.53-5.79,6.57-3.3,8.32-5.05,11.62-11.62,2-4,2.44-4.56,5.79-7.53,5.52-4.89,6.76-7,8.25-14.23.92-4.42,1.18-5,3.63-8.76a26.12,26.12,0,0,0,3.83-7.54c1.28-4.77,0-9.57.44-13.19s3-7.83,3-12.86a26.23,26.23,0,0,0-1.75-8.3c-1.39-4.18-1.49-4.84-1.22-9.4.43-7.27-.19-9.68-4.28-15.89ZM264.45,186c-.6,4.58.6,9.05-.24,12.16s-4.13,6.42-5.88,10.64-1.77,8.88-3.4,11.68-5.65,5.12-8.44,8.76-4,8.11-6.3,10.41-6.77,3.49-10.41,6.3-5.93,6.8-8.76,8.44-7.43,1.63-11.68,3.4-7.47,5-10.64,5.88-7.57-.36-12.16.24c-5.75.75-9.17,3.78-14.22,2.59a13.17,13.17,0,0,0,1.62-9.84c-4.24-18.71,4.41-20.34,6.59-36.59a52.31,52.31,0,0,0,.44-7,55.81,55.81,0,0,0-4-22,48.35,48.35,0,0,1-3.51-19.29A48.36,48.36,0,0,1,177,152.48a55.81,55.81,0,0,0,4-22,55.81,55.81,0,0,0-4-22c-6.1-16.8-1.3-19.6-5.45-26.35a12.18,12.18,0,0,1,3.19-.52c3.32,0,7.29,2.32,11.81,2.91s9.06-.6,12.16.24,6.42,4.12,10.64,5.88S218.22,92.35,221,94s5.12,5.65,8.76,8.44,8.11,4,10.41,6.3,3.49,6.77,6.3,10.41,6.8,5.93,8.44,8.76a19.55,19.55,0,0,1,1.7,5.58c1.13,5.45,1.78,7,4.79,11.55s3.29,5.45,3,11-.09,7.26,1.62,12.4a19.66,19.66,0,0,1,1.34,5.77c0,3.32-2.32,7.3-2.91,11.81Z"/></g></g></svg>