<svg xmlns="http://www.w3.org/2000/svg" viewBox="0 0 340.16 340.16"><defs><style>.cls-1{fill:#f3edde;fill-rule:evenodd;}.cls-2{fill:#f8c077;}.cls-3{fill:#eb6145;}.cls-4{fill:#040000;}</style></defs><g id="圖層_2" data-name="圖層 2"><g id="圖層_1-2" data-name="圖層 1"><path class="cls-1" d="M0,170.08A170.08,170.08,0,1,1,170.08,340.16,170.08,170.08,0,0,1,0,170.08Z"/><path class="cls-2" d="M280.23,170.93,59.79,144.52v33.86c0,7.8,5.85,14.9,13.32,17.11,13.78,4.07,21.61,1.5,33.08,1.5,15.14,0,27.33,3.57,37.51,11.57,22.8,17.93,41.57,36.67,74.85,36.67,32,0,61.78-11.75,61.78-44V170.93Z"/><path class="cls-3" d="M181.44,96c-25.43-2.51-53.81-.65-77.7,6.87h0c-15.75,5-28.89,12.22-37.26,21.67a26.05,26.05,0,0,0-6.69,15.29v4.72c1.34,16.58,15.42,27.71,32.84,26.25a119.38,119.38,0,0,1,34.88,1.32,78.89,78.89,0,0,1,33.71,15.33c16.46,12.94,27.62,23.62,41.5,28.3,13.27,4.49,27.06,2.58,40.77-1.15,19.88-5.43,35.7-23.07,36.74-43.64C282.67,123,229.39,100.68,181.44,96Z"/><path class="cls-4" d="M211.3,168.74a4.48,4.48,0,1,0-4.49-4.48A4.49,4.49,0,0,0,211.3,168.74Z"/><path class="cls-4" d="M139.81,91.33c-15.81,1.43-31,4.89-37.61,7.29-20.13,6.38-45.05,19.65-46.89,40.7v39.06c0,9.58,7,18.58,16.54,21.41,14.61,4.31,23.26,1.68,34.35,1.68,23.23,0,31.82,8.2,42.63,16.93,20,16.1,38.79,31.31,69.72,31.31,35,0,66.27-13.76,66.27-48.46,0,0,0-30.81,0-31.05C287.05,108.15,203.38,85.52,139.81,91.33Zm136,79.38c-.85,16.71-12.59,31.82-29.09,38.11l13-78.08C271.13,142,276.54,155.36,275.76,170.71Zm-59.5-63.51-6.44,38.64a4.49,4.49,0,0,0,8.85,1.47l6.2-37.25a108,108,0,0,1,26.84,14l-14.59,87.55c-11.69,2.7-21,3-29.33,1l5-29.84a4.48,4.48,0,0,0-8.84-1.48l-4.72,28.27c-9.34-4.37-18.24-11.93-28.74-20.41l14.69-88.19A184,184,0,0,1,216.26,107.2ZM144.08,100a214.19,214.19,0,0,1,32.14,0l-13.78,82.7a83.24,83.24,0,0,0-29.81-14.05Zm-36.32,6.33a167.83,167.83,0,0,1,27.08-5.43l-11,66a120.38,120.38,0,0,0-26-1ZM64.27,140a21.51,21.51,0,0,1,5.57-12.54c6.3-7.12,16-13.26,28.29-18l-9.48,56.89c-12.6-.36-23.24-8.8-24.38-22.12Zm211.58,61.22c0,35.65-40.08,39.5-57.3,39.5-27.77,0-44.61-13.59-64.1-29.33-11.16-9-21.88-18.92-48.26-18.92-11.79,0-18.91,2.5-31.81-1.31-5.76-1.7-10.11-7.21-10.11-12.8V165.07c7.28,7.56,18,11.14,28.58,10.18h.21c12.5-1.2,23.48-.79,33.56,1.25a73.82,73.82,0,0,1,31.83,14.45c22,17.26,35.72,31.89,60.76,31.89,8.5,0,17.19-1.68,25.47-3.93a55.79,55.79,0,0,0,31.17-22.09v4.44Z"/></g></g></svg>