<svg id="圖層_1" data-name="圖層 1" xmlns="http://www.w3.org/2000/svg" viewBox="0 0 1920 1080"><defs><style>.cls-1{fill:#ffc535;}.cls-1,.cls-2,.cls-3,.cls-4{fill-rule:evenodd;}.cls-2{fill:#f4efdf;}.cls-3{fill:#eb7513;}.cls-4{fill:#76afaf;}</style></defs><path class="cls-1" d="M75.09,686.37A32.64,32.64,0,1,1,107.73,719a32.63,32.63,0,0,1-32.64-32.63Z"/><path class="cls-1" d="M1673.35,686.35a25.82,25.82,0,1,1,25.82,25.81,25.81,25.81,0,0,1-25.82-25.81Z"/><path class="cls-2" d="M203.43,942.76A22.29,22.29,0,1,1,225.72,965a22.26,22.26,0,0,1-22.29-22.23Z"/><path class="cls-3" d="M173.78,541a43.16,43.16,0,1,1,43.16,43,43.1,43.1,0,0,1-43.16-43Z"/><path class="cls-3" d="M1716,579.87c0-28.7,23.47-52,52.42-52s52.42,23.27,52.42,52-23.47,52-52.42,52-52.42-23.27-52.42-52Z"/><path class="cls-1" d="M176.47,1033.58a20.27,20.27,0,1,0-20.27,20.12,20.2,20.2,0,0,0,20.27-20.12Z"/><path class="cls-1" d="M1901.47,631.58a20.27,20.27,0,1,0-20.27,20.12,20.2,20.2,0,0,0,20.27-20.12Z"/><path class="cls-2" d="M276.89,325.82a26,26,0,1,1,26,25.88,26,26,0,0,1-26-25.88Z"/><path class="cls-4" d="M1860.07,342.73a39.39,39.39,0,1,0-39.39,39.55,39.48,39.48,0,0,0,39.39-39.55Z"/><path class="cls-4" d="M1902.25,922.26A20.66,20.66,0,1,0,1881.59,943a20.7,20.7,0,0,0,20.66-20.74Z"/><path class="cls-4" d="M171.58,832.32a30.91,30.91,0,1,1,30.91,30.81,30.86,30.86,0,0,1-30.91-30.81Z"/><path class="cls-4" d="M13.58,398.32a30.91,30.91,0,1,1,30.91,30.81,30.86,30.86,0,0,1-30.91-30.81Z"/><path class="cls-3" d="M1725,981.42a24.5,24.5,0,1,1,24.5,24.58,24.55,24.55,0,0,1-24.5-24.58Z"/></svg>