<svg xmlns="http://www.w3.org/2000/svg" viewBox="0 0 25.14 22.29"><defs><style>.cls-1{fill:#fff;}.cls-1,.cls-2{stroke:#fff;stroke-miterlimit:10;stroke-width:0.25px;}</style></defs><g id="圖層_2" data-name="圖層 2"><g id="圖層_1-2" data-name="圖層 1"><path class="cls-1" d="M18.73,4.83a1,1,0,0,1-.95,1h-.1a7,7,0,0,0-4.52,1.28l-.05.05A7.53,7.53,0,0,0,10.42,12a8.15,8.15,0,0,1,7.51-3.08.94.94,0,0,1,.8.93v1.53l4-4-4-4Z"/><path class="cls-2" d="M18.45.4a1,1,0,0,0-1.62.67V3.91a8.17,8.17,0,0,0-4.95,1.76,9.5,9.5,0,0,0-3.35,8.57v0l.13.72a.92.92,0,0,0,.76.77l.17,0a.94.94,0,0,0,.81-.46l.38-.63c2.07-3.44,4.63-4,6-4v2.94a1,1,0,0,0,.59.88,1,1,0,0,0,1-.21L24.74,8a1,1,0,0,0,0-1.34Zm.28,11V9.82a.94.94,0,0,0-.8-.93A8.15,8.15,0,0,0,10.42,12a7.53,7.53,0,0,1,2.69-4.86l.05-.05a7,7,0,0,1,4.52-1.28h.1a1,1,0,0,0,.95-1V3.35l4,4Z"/><path class="cls-2" d="M21.29,16.64a1,1,0,0,0-.95.95v2.68H2V6.38H7.7a1,1,0,0,0,0-1.9H1.07a1,1,0,0,0-.94.95V21.22a.94.94,0,0,0,.94,1H21.29a.94.94,0,0,0,.94-1V17.59A1,1,0,0,0,21.29,16.64Z"/></g></g></svg>