<svg xmlns="http://www.w3.org/2000/svg" viewBox="0 0 47.49 47.49"><defs><style>.cls-1{fill:gray;}</style></defs><g id="圖層_2" data-name="圖層 2"><g id="圖層_1-2" data-name="圖層 1"><path id="Icon_awesome-user-circle" data-name="Icon awesome-user-circle" class="cls-1" d="M23.74,0A23.75,23.75,0,1,0,47.49,23.75,23.75,23.75,0,0,0,23.74,0Zm0,9.19a8.43,8.43,0,1,1-8.43,8.43,8.42,8.42,0,0,1,8.43-8.43Zm0,32.94a18.35,18.35,0,0,1-14-6.53,10.69,10.69,0,0,1,9.43-5.73,2.25,2.25,0,0,1,.68.11,12.69,12.69,0,0,0,3.92.66A12.68,12.68,0,0,0,27.66,30a2.25,2.25,0,0,1,.68-.11,10.7,10.7,0,0,1,9.43,5.73A18.35,18.35,0,0,1,23.74,42.13Z"/></g></g></svg>