<svg id="圖層_1" data-name="圖層 1" xmlns="http://www.w3.org/2000/svg" xmlns:xlink="http://www.w3.org/1999/xlink" viewBox="0 0 1920 1080"><defs><style>.cls-1{fill:none;}.cls-2{clip-path:url(#clip-path);}.cls-3{fill:#ffc535;}.cls-3,.cls-4,.cls-5,.cls-6{fill-rule:evenodd;}.cls-4{fill:#f4efdf;}.cls-5{fill:#76afaf;}.cls-6{fill:#eb7513;}</style><clipPath id="clip-path"><rect class="cls-1" width="1920" height="1080"/></clipPath></defs><title>second_screen_background</title><g class="cls-2"><path class="cls-3" d="M170.09,595.37A32.64,32.64,0,1,1,202.73,628a32.63,32.63,0,0,1-32.64-32.63"/><path class="cls-3" d="M1328,725.35c0-14.25,12.53-25.81,28-25.81s28,11.56,28,25.81-12.53,25.81-28,25.81-28-11.56-28-25.81"/><path class="cls-4" d="M423.43,665.76A22.29,22.29,0,1,1,445.72,688a22.26,22.26,0,0,1-22.29-22.22"/><path class="cls-3" d="M375.47,834.58A20.27,20.27,0,1,0,355.2,854.7a20.19,20.19,0,0,0,20.27-20.12"/><path class="cls-4" d="M673.89,562.82a26,26,0,1,1,26,25.89,26,26,0,0,1-26-25.89"/><path class="cls-5" d="M1845.07,395.73a39.39,39.39,0,1,0-39.39,39.55,39.47,39.47,0,0,0,39.39-39.55"/><path class="cls-5" d="M242.58,329.32a30.91,30.91,0,1,1,30.91,30.81,30.86,30.86,0,0,1-30.91-30.81"/><path class="cls-6" d="M87,299.16a39.55,39.55,0,1,1,39.55,39.33A39.44,39.44,0,0,1,87,299.16"/><path class="cls-6" d="M1705,628.42A24.5,24.5,0,1,1,1729.5,653a24.54,24.54,0,0,1-24.5-24.59"/><path class="cls-4" d="M1407,850.71a27,27,0,1,1,27,26.95,26.95,26.95,0,0,1-27-26.95"/></g></svg>