<?xml version="1.0" encoding="utf-8"?>
<!-- Generator: Adobe Illustrator 21.1.0, SVG Export Plug-In . SVG Version: 6.00 Build 0)  -->
<svg version="1.1" id="圖層_1" xmlns="http://www.w3.org/2000/svg" xmlns:xlink="http://www.w3.org/1999/xlink" x="0px" y="0px"
	 viewBox="0 0 1920 1080" style="enable-background:new 0 0 1920 1080;" xml:space="preserve">
<style type="text/css">
	.st0{fill-rule:evenodd;clip-rule:evenodd;fill:#F5BF3C;}
	.st1{fill-rule:evenodd;clip-rule:evenodd;fill:#F2ECDC;}
	.st2{fill-rule:evenodd;clip-rule:evenodd;fill:#DF7219;}
	.st3{fill-rule:evenodd;clip-rule:evenodd;fill:#73A9A9;}
	.st4{fill:#591D80;}
	.st5{opacity:0.88;fill:#B61C68;}
</style>
<path class="st0" d="M1904.9,1001.4c0-18,14.6-32.6,32.6-32.6c18,0,32.6,14.6,32.6,32.6s-14.6,32.6-32.6,32.6
	C1919.6,1034,1904.9,1019.4,1904.9,1001.4L1904.9,1001.4z"/>
<path class="st0" d="M1911.4,660.3c0-14.3,11.6-25.8,25.8-25.8c14.3,0,25.8,11.6,25.8,25.8s-11.6,25.8-25.8,25.8
	C1922.9,686.2,1911.4,674.6,1911.4,660.3L1911.4,660.3z"/>
<path class="st1" d="M160.9,959c0-12.3,10-22.2,22.3-22.2c12.3,0,22.3,9.9,22.3,22.2c0,12.3-10,22.2-22.3,22.2
	C170.9,981.2,160.9,971.2,160.9,959L160.9,959z"/>
<path class="st2" d="M39.5,636.3c0-23.8,19.3-43,43.2-43c23.8,0,43.2,19.3,43.2,43c0,23.8-19.3,43-43.2,43
	C58.8,679.3,39.5,660,39.5,636.3L39.5,636.3z"/>
<path class="st0" d="M1901.7,580.7c0-11.1-9.1-20.1-20.3-20.1c-11.2,0-20.3,9-20.3,20.1s9.1,20.1,20.3,20.1
	C1892.6,600.8,1901.7,591.8,1901.7,580.7L1901.7,580.7z"/>
<path class="st0" d="M243.3,699.1c0-11.1-9.1-20.1-20.3-20.1s-20.3,9-20.3,20.1s9.1,20.1,20.3,20.1S243.3,710.2,243.3,699.1
	L243.3,699.1z"/>
<path class="st3" d="M196.1,482.8c0-21.8-17.6-39.6-39.4-39.6s-39.4,17.7-39.4,39.6s17.6,39.6,39.4,39.6S196.1,504.7,196.1,482.8
	L196.1,482.8z"/>
<path class="st3" d="M1804.2,829.3c0-11.5-9.2-20.7-20.7-20.7s-20.7,9.3-20.7,20.7s9.2,20.7,20.7,20.7S1804.2,840.7,1804.2,829.3
	L1804.2,829.3z"/>
<path class="st3" d="M146.4,829.3c0-11.5-9.2-20.7-20.7-20.7s-20.7,9.3-20.7,20.7s9.2,20.7,20.7,20.7S146.4,840.7,146.4,829.3
	L146.4,829.3z"/>
<path class="st3" d="M1820.4,330.9c0-17,13.8-30.8,30.9-30.8c17.1,0,30.9,13.8,30.9,30.8c0,17-13.8,30.8-30.9,30.8
	C1834.2,361.7,1820.4,347.9,1820.4,330.9L1820.4,330.9z"/>
<path class="st2" d="M96.9,968.8c0-21.7,17.7-39.3,39.5-39.3c21.8,0,39.5,17.6,39.5,39.3c0,21.7-17.7,39.3-39.5,39.3
	C114.6,1008.1,96.9,990.5,96.9,968.8L96.9,968.8z"/>
<path class="st2" d="M1765,507.4c0-13.6,11-24.6,24.5-24.6s24.5,11,24.5,24.6c0,13.6-11,24.6-24.5,24.6S1765,521,1765,507.4
	L1765,507.4z"/>
<path class="st1" d="M82.8,603c0-14.9,12.1-26.9,27-26.9s27,12.1,27,26.9c0,14.9-12.1,26.9-27,26.9S82.8,617.9,82.8,603L82.8,603z"
	/>
<ellipse transform="matrix(0.9308 -0.3656 0.3656 0.9308 -122.8087 58.9302)" class="st4" cx="94.2" cy="353.7" rx="126" ry="125.9"/>
<circle class="st5" cx="1861.1" cy="750.6" r="98.2"/>
</svg>
