<svg xmlns="http://www.w3.org/2000/svg" viewBox="0 0 2048.88 773.55"><defs><style>.cls-1{fill:#f5bf3c;}.cls-1,.cls-2,.cls-3,.cls-4,.cls-5,.cls-6{opacity:0.5;}.cls-2{fill:#df7219;}.cls-3{fill:#73a9a9;}.cls-4{fill:#f2ecdc;}.cls-5{fill:#591d80;}.cls-6{fill:#b61c68;isolation:isolate;}</style></defs><title>資產 12</title><g id="圖層_2" data-name="圖層 2"><g id="圖層_1-2" data-name="圖層 1"><path id="路径_296" data-name="路径 296" class="cls-1" d="M1881.48,740.78a32.64,32.64,0,1,1,32.65,32.63h0a32.63,32.63,0,0,1-32.64-32.63Z"/><path id="路径_297" data-name="路径 297" class="cls-1" d="M16.88,747.74A25.82,25.82,0,1,1,42.7,773.55h0A25.81,25.81,0,0,1,16.88,747.74Z"/><path id="路径_299" data-name="路径 299" class="cls-2" d="M0,225.66a43.16,43.16,0,1,1,43.3,43h-.14A43.09,43.09,0,0,1,0,225.66H0Z"/><path id="路径_300" data-name="路径 300" class="cls-1" d="M1878.21,320.09a20.27,20.27,0,1,0-20.41,20.12h.15A20.19,20.19,0,0,0,1878.21,320.09Z"/><path id="路径_301" data-name="路径 301" class="cls-1" d="M224.87,255.53a20.27,20.27,0,1,0-20.42,20.12h.15A20.19,20.19,0,0,0,224.87,255.53Z"/><path id="路径_302" data-name="路径 302" class="cls-3" d="M177.6,39.23a39.39,39.39,0,1,0-39.39,39.55A39.39,39.39,0,0,0,177.6,39.23Z"/><path id="路径_303" data-name="路径 303" class="cls-3" d="M1780.77,568.66a20.65,20.65,0,1,0-20.65,20.74A20.65,20.65,0,0,0,1780.77,568.66Z"/><path id="路径_304" data-name="路径 304" class="cls-3" d="M128,385.66a20.65,20.65,0,1,0-20.65,20.74A20.65,20.65,0,0,0,128,385.66Z"/><path id="路径_305" data-name="路径 305" class="cls-3" d="M1796.94,70.28a30.91,30.91,0,1,1,31,30.81h-.1a30.86,30.86,0,0,1-30.91-30.81Z"/><path id="路径_306" data-name="路径 306" class="cls-2" d="M78.43,525.15a39.55,39.55,0,1,1,39.77,39.33H118A39.44,39.44,0,0,1,78.43,525.15Z"/><path id="路径_307" data-name="路径 307" class="cls-2" d="M1741.53,246.81A24.5,24.5,0,1,1,1766,271.4,24.5,24.5,0,0,1,1741.53,246.81Z"/><path id="路径_324" data-name="路径 324" class="cls-2" d="M1897.53,163.18a36.82,36.82,0,1,1,36.82,37,36.82,36.82,0,0,1-36.82-37Z"/><path id="路径_308" data-name="路径 308" class="cls-4" d="M64.35,159.38a27,27,0,1,1,27,26.95h0a27,27,0,0,1-27-26.94Z"/><ellipse id="椭圆_60" data-name="椭圆 60" class="cls-5" cx="255.82" cy="669.98" rx="60.73" ry="59.72" transform="translate(-227.25 139.92) rotate(-21.45)"/><circle id="椭圆_61" data-name="椭圆 61" class="cls-6" cx="1971.17" cy="485.5" r="77.71"/></g></g></svg>