<svg id="圖層_1" data-name="圖層 1" xmlns="http://www.w3.org/2000/svg" xmlns:xlink="http://www.w3.org/1999/xlink" viewBox="0 0 762.15 358"><defs><style>.cls-1{fill:none;}.cls-2{clip-path:url(#clip-path);}.cls-3{fill:#a40808;}</style><clipPath id="clip-path" transform="translate(-664.85 -301)"><rect class="cls-1" width="1920" height="1080"/></clipPath></defs><title>食緣-4</title><g class="cls-2"><path class="cls-3" d="M796.71,645.27c0,1.6,0,3.19,0,4.79a175.83,175.83,0,0,0,41.67,6.31,11.49,11.49,0,0,1,1.06-4.56,172,172,0,0,1-42.71-6.54" transform="translate(-664.85 -301)"/><path class="cls-3" d="M874.13,649.27q-2.4,2.65-4.75,5.35a175,175,0,0,0,52.44-16.33l-4.31-2.8a170.88,170.88,0,0,1-43.38,13.79" transform="translate(-664.85 -301)"/><path class="cls-3" d="M1020.3,480c0-97.3-79.16-176.46-176.46-176.46S667.39,382.7,667.39,480c0,71.46,42.7,133.13,103.92,160.85q0-2.54,0-5.09a172.16,172.16,0,1,1,170.88-14.56l3.94,2.51A176.37,176.37,0,0,0,1020.3,480" transform="translate(-664.85 -301)"/><path class="cls-3" d="M897,626q-11.91,11.18-22.85,23.3a170.88,170.88,0,0,0,43.38-13.79q-9.25-6.07-18.41-12.28A11,11,0,0,1,897,626" transform="translate(-664.85 -301)"/><path class="cls-3" d="M768.25,532.83A64.07,64.07,0,1,1,795.46,570q1.42,37.61,1.25,75.26a172,172,0,0,0,42.71,6.54,19.42,19.42,0,0,1,2.65-4.08,397.35,397.35,0,0,1,36.13-39c-1.82-1.28-3.65-2.55-5.46-3.84-5.8-4.12-8-10.85-4.56-17.39,3-5.7,12-8.42,17.39-4.56q27.85,19.79,56.61,38.25a172.11,172.11,0,1,0-170.87,14.56q0-6.28-.05-12.56-.35-45.22-3-90.38m79.84-101.1c-3.12,5.9-11.79,8.16-17.39,4.56L805,419.82a13,13,0,0,1-4.56-17.39c3.12-5.9,11.79-8.16,17.39-4.56l25.67,16.47a13,13,0,0,1,4.56,17.39m80.4,122.19a13.07,13.07,0,0,1,11.62-7.81h.78a12.65,12.65,0,0,1,6.42,1.73l2.57,2a12.7,12.7,0,0,1,3.27,5.61l.45,3.38a13.07,13.07,0,0,1-12.71,12.71h-.78a12.65,12.65,0,0,1-6.42-1.74l-2.57-2a12.7,12.7,0,0,1-3.27-5.61l-.45-3.38a9.58,9.58,0,0,1,1.1-4.9M721.46,450c-5.34-4.9-4.31-12.92,0-18l77.37-90.92.11-.22a11.5,11.5,0,0,1,5-4.78A10.84,10.84,0,0,1,807.1,335a12.12,12.12,0,0,1,9.24,1.37l103.5,66.4a13,13,0,0,1,4.56,17.39c-3.12,5.9-11.79,8.16-17.39,4.56L812.56,364.1,739.44,450c-4.6,5.41-13.24,4.35-18,0" transform="translate(-664.85 -301)"/><path class="cls-3" d="M803.93,336.11a11.5,11.5,0,0,0-5,4.78l-.11.23,2.32-2.73a10,10,0,0,1,2.78-2.28" transform="translate(-664.85 -301)"/><path class="cls-3" d="M803.93,336.11A13.71,13.71,0,0,1,807.1,335a10.86,10.86,0,0,0-3.16,1.15" transform="translate(-664.85 -301)"/><path class="cls-3" d="M667.39,480c0-97.3,79.16-176.46,176.46-176.46S1020.3,382.7,1020.3,480a176.37,176.37,0,0,1-74.17,143.71l2.39,1.51a179.83,179.83,0,0,0,60.26-75.55,179,179,0,1,0-237.48,94q0-1.41,0-2.83C710.09,613.13,667.39,551.46,667.39,480" transform="translate(-664.85 -301)"/><path class="cls-3" d="M869.38,654.61c-.85,1-1.68,1.95-2.51,2.92a177.2,177.2,0,0,0,46.66-12.6q5.51-2.33,10.83-5l-2.53-1.64a175,175,0,0,1-52.44,16.33" transform="translate(-664.85 -301)"/><path class="cls-3" d="M838.35,656.37a175.78,175.78,0,0,1-41.67-6.31c0,.62,0,1.24,0,1.87,0,.26,0,.53,0,.79a178.19,178.19,0,0,0,41.91,6.21,12.14,12.14,0,0,1-.21-2.2c0-.12,0-.23,0-.35" transform="translate(-664.85 -301)"/><path class="cls-3" d="M796.69,650.06a175.23,175.23,0,0,1-25.38-9.2q0,1.41,0,2.83c1,.42,1.91.85,2.87,1.25a178.28,178.28,0,0,0,22.48,7.78c0-.26,0-.52,0-.79,0-.62,0-1.24,0-1.87" transform="translate(-664.85 -301)"/><path class="cls-3" d="M843.85,656.46q-2.76,0-5.49-.09c0,.12,0,.23,0,.35a12.14,12.14,0,0,0,.21,2.2c1.76.05,3.52.08,5.29.08a181.21,181.21,0,0,0,23-1.47c.83-1,1.67-2,2.51-2.92a177.16,177.16,0,0,1-25.53,1.85" transform="translate(-664.85 -301)"/><path class="cls-3" d="M946.13,623.71a176.64,176.64,0,0,1-24.31,14.56l2.53,1.64a177.81,177.81,0,0,0,24.17-14.69l-2.39-1.52" transform="translate(-664.85 -301)"/><rect class="cls-3" x="810.56" y="486.61" width="34.03" height="12.71" transform="matrix(0.99, -0.16, 0.16, 0.99, -734.63, -158.23)"/><rect class="cls-3" x="817.17" y="531.36" width="34.03" height="12.71" transform="matrix(0.99, -0.16, 0.16, 0.99, -741.9, -156.54)"/><path class="cls-3" d="M1157.87,427.66q7.42-4.94,13.61,0,30.93,26,66.81,37.12,2.46,6.19-3.71,6.19-33.41-9.89-64.34-34.64-5-4.94-11.14,0-32.17,26-61.86,32.17-6.19,0-3.71-6.19a136.35,136.35,0,0,0,64.34-34.64m3.71,21q4.95,5,11.14,19.8h29.7q13.6,0,12.37,12.37v27.22q1.23,13.62-12.37,12.37h-81.66V555.1q0,6.18,4.95,6.19a135,135,0,0,0,38.36-8.66q6.18,1.23,2.47,7.42-17.33,6.18-40.83,8.66-11.14,1.23-12.37-11.14V480.87q0-12.37,12.37-12.37h38.36q-1.25-4.94-8.66-14.85,0-7.42,6.19-4.95m38.36,27.22h-71.76q-7.42,0-7.42,7.42v6.19h86.61v-6.19q1.23-7.43-7.42-7.42m7.42,21h-86.61V513h79.19q8.66,1.25,7.42-7.42Zm-58.15,34.64q-1.25-6.18,4.95-6.19,11.14,5,30.93,14.85A107.55,107.55,0,0,0,1218.5,518q6.18-1.23,4.95,6.19-11.14,11.14-29.69,21a209,209,0,0,1,32.17,17.32q3.71,6.18-3.71,7.42a696,696,0,0,0-73-38.36" transform="translate(-664.85 -301)"/><path class="cls-3" d="M1293.37,524.17a139.11,139.11,0,0,1-8.66,40.83q-6.19,4.95-7.42-1.24a151.14,151.14,0,0,0,8.66-40.83q4.95-6.18,7.42,1.24M1307,427.66q6.18-3.71,6.19,3.71a246,246,0,0,1-22.27,38.36H1307a186.72,186.72,0,0,0,14.85-28.46q6.18-2.46,6.19,3.71-14.85,33.41-33.41,54.44l28.46-3.71-6.19-14.85q1.23-7.42,7.42-2.48a165.79,165.79,0,0,1,11.14,32.17Q1333,518,1328,511.8l-2.47-8.66-40.83,4.95q-6.19-2.46-1.24-8.66,7.42-7.42,18.56-22.27h-17.32q-6.19,0-2.47-8.66,12.37-14.85,24.75-40.83m2.47,92.8q2.46,19.81,3.71,38.35-3.71,7.43-7.42,1.24-1.25-17.31-3.71-38.36,2.46-6.18,7.42-1.24m8.66-2.48q2.46-7.42,7.42-1.24,3.71,16.1,6.19,34.64-2.48,7.42-7.42,1.24-2.48-18.56-6.19-34.64m81.66-12.37a84.44,84.44,0,0,0,26,48.25q3.71,8.66-4.95,6.19-21-19.79-28.46-52l-4.95,2.47q4.95,24.75,2.47,38.36-2.48,16.08-13.61,18.56t-23.51-5q-2.48-6.19,4.95-6.19,18.56,11.14,23.51-4.95,2.46-9.89,0-23.51-19.81,22.27-43.31,30.93-6.19-2.48-1.24-7.42,24.74-9.89,43.31-32.17a20.06,20.06,0,0,0-2.47-8.66q-12.38,12.38-37.12,23.51-6.19,0-3.71-6.19,23.51-11.13,35.88-23.51a31.61,31.61,0,0,0-7.42-7.42,87.59,87.59,0,0,1-23.51,11.14q-7.43,1.25-3.71-6.19,24.73-8.66,35.88-22.27H1333q-5-3.71,0-7.42h61.87l2.47-9.9H1354q-13.62,1.25-9.9-11.14l8.66-26q7.42-4.94,7.42,2.47l-2.47,6.19h38.36q14.85,0,12.37,12.37l-6.19,26h22.27q4.95,3.71,0,7.42H1383.7q-3.71,3.71-11.14,12.37,4.95,5,11.14,12.37,18.56-7.43,29.69-16.09,7.42-1.23,4.95,6.19-6.19,5-18.56,11.14m-3.71-64.34h-40.83l-2.47,7.42q-2.48,7.42,3.71,6.19h42.07l2.47-7.42q1.23-6.18-4.95-6.19" transform="translate(-664.85 -301)"/></g></svg>