<svg xmlns="http://www.w3.org/2000/svg" viewBox="0 0 309.41 734.14"><defs><style>.cls-1{fill:#f5bf3c;}.cls-2{fill:#73a9a9;}.cls-3{fill:#df7219;}.cls-4{fill:#b61c68;opacity:0.88;isolation:isolate;}</style></defs><title>資產 10</title><g id="圖層_2" data-name="圖層 2"><g id="圖層_1-2" data-name="圖層 1"><path id="路径_296" data-name="路径 296" class="cls-1" d="M142,701.51a32.64,32.64,0,1,1,32.65,32.63h0A32.63,32.63,0,0,1,142,701.51Z"/><path id="路径_300" data-name="路径 300" class="cls-1" d="M138.74,280.82a20.27,20.27,0,1,0-20.41,20.12h.15A20.19,20.19,0,0,0,138.74,280.82Z"/><path id="路径_303" data-name="路径 303" class="cls-2" d="M41.31,529.39a20.65,20.65,0,1,0-20.65,20.74A20.65,20.65,0,0,0,41.31,529.39Z"/><path id="路径_305" data-name="路径 305" class="cls-2" d="M57.47,31a30.91,30.91,0,1,1,31,30.81h-.1A30.86,30.86,0,0,1,57.47,31Z"/><path id="路径_307" data-name="路径 307" class="cls-3" d="M2.06,207.54a24.5,24.5,0,1,1,24.5,24.58A24.5,24.5,0,0,1,2.06,207.54Z"/><path id="路径_324" data-name="路径 324" class="cls-3" d="M158.06,123.91a36.82,36.82,0,1,1,36.82,37,36.82,36.82,0,0,1-36.82-37Z"/><circle id="椭圆_61" data-name="椭圆 61" class="cls-4" cx="231.71" cy="446.23" r="77.71"/></g></g></svg>